<svg width="1363" height="167" viewBox="0 0 1363 167" fill="none" xmlns="http://www.w3.org/2000/svg">
<rect width="1363" height="167" rx="15" fill="#F0F0F0"/>
<path d="M0 15C0 6.71573 6.71573 0 15 0H37V167H15C6.71573 167 0 160.284 0 152V15Z" fill="#424241"/>
<path d="M100.906 54.9219L93.3945 52.2383V49.0859L103.602 53.375V55.6367L100.906 54.9219ZM93.3945 57.1719L100.918 54.4297L103.602 53.7852V56.0352L93.3945 60.3242V57.1719ZM122.867 59.2578V62H114.277V59.2578H122.867ZM115.414 44.9375V62H111.898V44.9375H115.414ZM130.508 62.2344C129.523 62.2344 128.641 62.0781 127.859 61.7656C127.078 61.4453 126.414 61.0039 125.867 60.4414C125.328 59.8789 124.914 59.2266 124.625 58.4844C124.336 57.7344 124.191 56.9375 124.191 56.0938V55.625C124.191 54.6641 124.328 53.7852 124.602 52.9883C124.875 52.1914 125.266 51.5 125.773 50.9141C126.289 50.3281 126.914 49.8789 127.648 49.5664C128.383 49.2461 129.211 49.0859 130.133 49.0859C131.031 49.0859 131.828 49.2344 132.523 49.5312C133.219 49.8281 133.801 50.25 134.27 50.7969C134.746 51.3438 135.105 52 135.348 52.7656C135.59 53.5234 135.711 54.3672 135.711 55.2969V56.7031H125.633V54.4531H132.395V54.1953C132.395 53.7266 132.309 53.3086 132.137 52.9414C131.973 52.5664 131.723 52.2695 131.387 52.0508C131.051 51.832 130.621 51.7227 130.098 51.7227C129.652 51.7227 129.27 51.8203 128.949 52.0156C128.629 52.2109 128.367 52.4844 128.164 52.8359C127.969 53.1875 127.82 53.6016 127.719 54.0781C127.625 54.5469 127.578 55.0625 127.578 55.625V56.0938C127.578 56.6016 127.648 57.0703 127.789 57.5C127.938 57.9297 128.145 58.3008 128.41 58.6133C128.684 58.9258 129.012 59.168 129.395 59.3398C129.785 59.5117 130.227 59.5977 130.719 59.5977C131.328 59.5977 131.895 59.4805 132.418 59.2461C132.949 59.0039 133.406 58.6406 133.789 58.1562L135.43 59.9375C135.164 60.3203 134.801 60.6875 134.34 61.0391C133.887 61.3906 133.34 61.6797 132.699 61.9062C132.059 62.125 131.328 62.2344 130.508 62.2344ZM143.844 49.3203V51.7109H136.461V49.3203H143.844ZM138.289 46.1914H141.664V58.1797C141.664 58.5469 141.711 58.8281 141.805 59.0234C141.906 59.2188 142.055 59.3555 142.25 59.4336C142.445 59.5039 142.691 59.5391 142.988 59.5391C143.199 59.5391 143.387 59.5312 143.551 59.5156C143.723 59.4922 143.867 59.4688 143.984 59.4453L143.996 61.9297C143.707 62.0234 143.395 62.0977 143.059 62.1523C142.723 62.207 142.352 62.2344 141.945 62.2344C141.203 62.2344 140.555 62.1133 140 61.8711C139.453 61.6211 139.031 61.2227 138.734 60.6758C138.438 60.1289 138.289 59.4102 138.289 58.5195V46.1914ZM155.117 51.9453V62H151.73V49.3203H154.906L155.117 51.9453ZM154.648 55.2148H153.711C153.711 54.332 153.816 53.5195 154.027 52.7773C154.246 52.0273 154.562 51.3789 154.977 50.832C155.398 50.2773 155.918 49.8477 156.535 49.543C157.152 49.2383 157.867 49.0859 158.68 49.0859C159.242 49.0859 159.758 49.1719 160.227 49.3438C160.695 49.5078 161.098 49.7695 161.434 50.1289C161.777 50.4805 162.043 50.9414 162.23 51.5117C162.418 52.0742 162.512 52.75 162.512 53.5391V62H159.137V53.9141C159.137 53.3359 159.059 52.8906 158.902 52.5781C158.746 52.2656 158.523 52.0469 158.234 51.9219C157.953 51.7969 157.613 51.7344 157.215 51.7344C156.777 51.7344 156.395 51.8242 156.066 52.0039C155.746 52.1836 155.48 52.4336 155.27 52.7539C155.059 53.0664 154.902 53.4336 154.801 53.8555C154.699 54.2773 154.648 54.7305 154.648 55.2148ZM162.195 54.8281L160.988 54.9805C160.988 54.1523 161.09 53.3828 161.293 52.6719C161.504 51.9609 161.812 51.3359 162.219 50.7969C162.633 50.2578 163.145 49.8398 163.754 49.543C164.363 49.2383 165.066 49.0859 165.863 49.0859C166.473 49.0859 167.027 49.1758 167.527 49.3555C168.027 49.5273 168.453 49.8047 168.805 50.1875C169.164 50.5625 169.438 51.0547 169.625 51.6641C169.82 52.2734 169.918 53.0195 169.918 53.9023V62H166.531V53.9023C166.531 53.3164 166.453 52.8711 166.297 52.5664C166.148 52.2539 165.93 52.0391 165.641 51.9219C165.359 51.7969 165.023 51.7344 164.633 51.7344C164.227 51.7344 163.871 51.8164 163.566 51.9805C163.262 52.1367 163.008 52.3555 162.805 52.6367C162.602 52.918 162.449 53.2461 162.348 53.6211C162.246 53.9883 162.195 54.3906 162.195 54.8281ZM178.367 62.2344C177.383 62.2344 176.5 62.0781 175.719 61.7656C174.938 61.4453 174.273 61.0039 173.727 60.4414C173.188 59.8789 172.773 59.2266 172.484 58.4844C172.195 57.7344 172.051 56.9375 172.051 56.0938V55.625C172.051 54.6641 172.188 53.7852 172.461 52.9883C172.734 52.1914 173.125 51.5 173.633 50.9141C174.148 50.3281 174.773 49.8789 175.508 49.5664C176.242 49.2461 177.07 49.0859 177.992 49.0859C178.891 49.0859 179.688 49.2344 180.383 49.5312C181.078 49.8281 181.66 50.25 182.129 50.7969C182.605 51.3438 182.965 52 183.207 52.7656C183.449 53.5234 183.57 54.3672 183.57 55.2969V56.7031H173.492V54.4531H180.254V54.1953C180.254 53.7266 180.168 53.3086 179.996 52.9414C179.832 52.5664 179.582 52.2695 179.246 52.0508C178.91 51.832 178.48 51.7227 177.957 51.7227C177.512 51.7227 177.129 51.8203 176.809 52.0156C176.488 52.2109 176.227 52.4844 176.023 52.8359C175.828 53.1875 175.68 53.6016 175.578 54.0781C175.484 54.5469 175.438 55.0625 175.438 55.625V56.0938C175.438 56.6016 175.508 57.0703 175.648 57.5C175.797 57.9297 176.004 58.3008 176.27 58.6133C176.543 58.9258 176.871 59.168 177.254 59.3398C177.645 59.5117 178.086 59.5977 178.578 59.5977C179.188 59.5977 179.754 59.4805 180.277 59.2461C180.809 59.0039 181.266 58.6406 181.648 58.1562L183.289 59.9375C183.023 60.3203 182.66 60.6875 182.199 61.0391C181.746 61.3906 181.199 61.6797 180.559 61.9062C179.918 62.125 179.188 62.2344 178.367 62.2344ZM195.031 49.3203V62H191.645V49.3203H195.031ZM191.434 46.0156C191.434 45.5234 191.605 45.1172 191.949 44.7969C192.293 44.4766 192.754 44.3164 193.332 44.3164C193.902 44.3164 194.359 44.4766 194.703 44.7969C195.055 45.1172 195.23 45.5234 195.23 46.0156C195.23 46.5078 195.055 46.9141 194.703 47.2344C194.359 47.5547 193.902 47.7148 193.332 47.7148C192.754 47.7148 192.293 47.5547 191.949 47.2344C191.605 46.9141 191.434 46.5078 191.434 46.0156ZM201.125 52.0273V62H197.75V49.3203H200.914L201.125 52.0273ZM200.633 55.2148H199.719C199.719 54.2773 199.84 53.4336 200.082 52.6836C200.324 51.9258 200.664 51.2812 201.102 50.75C201.539 50.2109 202.059 49.8008 202.66 49.5195C203.27 49.2305 203.949 49.0859 204.699 49.0859C205.293 49.0859 205.836 49.1719 206.328 49.3438C206.82 49.5156 207.242 49.7891 207.594 50.1641C207.953 50.5391 208.227 51.0352 208.414 51.6523C208.609 52.2695 208.707 53.0234 208.707 53.9141V62H205.309V53.9023C205.309 53.3398 205.23 52.9023 205.074 52.5898C204.918 52.2773 204.688 52.0586 204.383 51.9336C204.086 51.8008 203.719 51.7344 203.281 51.7344C202.828 51.7344 202.434 51.8242 202.098 52.0039C201.77 52.1836 201.496 52.4336 201.277 52.7539C201.066 53.0664 200.906 53.4336 200.797 53.8555C200.688 54.2773 200.633 54.7305 200.633 55.2148Z" fill="#888888"/>
<path d="M115.994 98.708V104.641H99.5806V98.708H115.994ZM102.151 86.0078V118H94.439V86.0078H102.151ZM121.18 86.0078V118H113.489V86.0078H121.18ZM124.805 106.354V105.893C124.805 104.15 125.054 102.546 125.552 101.081C126.05 99.6016 126.783 98.3198 127.75 97.2358C128.716 96.1519 129.91 95.3096 131.331 94.709C132.752 94.0938 134.393 93.7861 136.253 93.7861C138.128 93.7861 139.776 94.0938 141.197 94.709C142.632 95.3096 143.833 96.1519 144.8 97.2358C145.767 98.3198 146.5 99.6016 146.998 101.081C147.496 102.546 147.745 104.15 147.745 105.893V106.354C147.745 108.083 147.496 109.687 146.998 111.167C146.5 112.631 145.767 113.913 144.8 115.012C143.833 116.096 142.64 116.938 141.219 117.539C139.798 118.139 138.157 118.439 136.297 118.439C134.437 118.439 132.789 118.139 131.353 117.539C129.917 116.938 128.716 116.096 127.75 115.012C126.783 113.913 126.05 112.631 125.552 111.167C125.054 109.687 124.805 108.083 124.805 106.354ZM132.21 105.893V106.354C132.21 107.248 132.276 108.083 132.408 108.859C132.54 109.636 132.759 110.317 133.067 110.903C133.375 111.474 133.792 111.921 134.319 112.243C134.847 112.565 135.506 112.727 136.297 112.727C137.073 112.727 137.718 112.565 138.23 112.243C138.758 111.921 139.175 111.474 139.483 110.903C139.791 110.317 140.01 109.636 140.142 108.859C140.274 108.083 140.34 107.248 140.34 106.354V105.893C140.34 105.029 140.274 104.216 140.142 103.454C140.01 102.678 139.791 101.997 139.483 101.411C139.175 100.81 138.758 100.341 138.23 100.004C137.703 99.6675 137.044 99.499 136.253 99.499C135.477 99.499 134.825 99.6675 134.297 100.004C133.785 100.341 133.375 100.81 133.067 101.411C132.759 101.997 132.54 102.678 132.408 103.454C132.276 104.216 132.21 105.029 132.21 105.893ZM158.27 110.925L162.664 94.2256H167.3L165.652 102.597L161.302 118H157.588L158.27 110.925ZM156.534 94.2256L159.258 110.793L159.566 118H155.062L149.437 94.2256H156.534ZM171.211 110.441L173.958 94.2256H181.055L175.474 118H170.97L171.211 110.441ZM167.828 94.2256L172.266 110.881L172.947 118H169.19L164.927 102.641L163.345 94.2256H167.828ZM209.466 86.0078V118H201.753V86.0078H209.466ZM219.09 86.0078V91.9624H192.349V86.0078H219.09ZM216.475 106.354V105.893C216.475 104.15 216.724 102.546 217.222 101.081C217.72 99.6016 218.453 98.3198 219.419 97.2358C220.386 96.1519 221.58 95.3096 223.001 94.709C224.422 94.0938 226.062 93.7861 227.923 93.7861C229.798 93.7861 231.446 94.0938 232.867 94.709C234.302 95.3096 235.503 96.1519 236.47 97.2358C237.437 98.3198 238.169 99.6016 238.667 101.081C239.166 102.546 239.415 104.15 239.415 105.893V106.354C239.415 108.083 239.166 109.687 238.667 111.167C238.169 112.631 237.437 113.913 236.47 115.012C235.503 116.096 234.31 116.938 232.889 117.539C231.468 118.139 229.827 118.439 227.967 118.439C226.106 118.439 224.458 118.139 223.023 117.539C221.587 116.938 220.386 116.096 219.419 115.012C218.453 113.913 217.72 112.631 217.222 111.167C216.724 109.687 216.475 108.083 216.475 106.354ZM223.88 105.893V106.354C223.88 107.248 223.946 108.083 224.078 108.859C224.209 109.636 224.429 110.317 224.737 110.903C225.044 111.474 225.462 111.921 225.989 112.243C226.517 112.565 227.176 112.727 227.967 112.727C228.743 112.727 229.388 112.565 229.9 112.243C230.428 111.921 230.845 111.474 231.153 110.903C231.46 110.317 231.68 109.636 231.812 108.859C231.944 108.083 232.01 107.248 232.01 106.354V105.893C232.01 105.029 231.944 104.216 231.812 103.454C231.68 102.678 231.46 101.997 231.153 101.411C230.845 100.81 230.428 100.341 229.9 100.004C229.373 99.6675 228.714 99.499 227.923 99.499C227.146 99.499 226.495 99.6675 225.967 100.004C225.455 100.341 225.044 100.81 224.737 101.411C224.429 101.997 224.209 102.678 224.078 103.454C223.946 104.216 223.88 105.029 223.88 105.893ZM254.268 86.0078H266.858C269.319 86.0078 271.458 86.374 273.274 87.1064C275.091 87.8389 276.49 88.9229 277.471 90.3584C278.467 91.7939 278.965 93.5664 278.965 95.6758C278.965 97.5068 278.68 99.0376 278.108 100.268C277.537 101.499 276.739 102.517 275.713 103.322C274.703 104.113 273.523 104.765 272.176 105.278L269.649 106.706H259.08L259.036 100.751H266.858C267.84 100.751 268.653 100.576 269.297 100.224C269.942 99.8726 270.425 99.3745 270.748 98.73C271.084 98.0708 271.253 97.2871 271.253 96.3789C271.253 95.4561 271.084 94.665 270.748 94.0059C270.411 93.3467 269.913 92.8413 269.253 92.4897C268.609 92.1382 267.811 91.9624 266.858 91.9624H261.98V118H254.268V86.0078ZM271.78 118L264.705 103.85L272.879 103.806L280.042 117.67V118H271.78ZM297.159 112.221V94.2256H304.585V118H297.642L297.159 112.221ZM297.862 107.387L299.795 107.343C299.795 108.94 299.605 110.419 299.224 111.782C298.843 113.129 298.279 114.301 297.532 115.297C296.8 116.293 295.892 117.07 294.808 117.626C293.738 118.168 292.5 118.439 291.094 118.439C289.922 118.439 288.846 118.278 287.864 117.956C286.897 117.619 286.062 117.099 285.359 116.396C284.656 115.678 284.107 114.763 283.711 113.649C283.331 112.521 283.14 111.174 283.14 109.606V94.2256H290.545V109.65C290.545 110.178 290.611 110.632 290.743 111.013C290.875 111.394 291.065 111.716 291.314 111.979C291.563 112.229 291.871 112.419 292.237 112.551C292.618 112.668 293.05 112.727 293.533 112.727C294.646 112.727 295.518 112.492 296.148 112.023C296.778 111.555 297.217 110.917 297.466 110.112C297.73 109.306 297.862 108.398 297.862 107.387ZM315.945 99.3013V118H308.541V94.2256H315.484L315.945 99.3013ZM315.066 105.3L313.331 105.344C313.331 103.527 313.55 101.909 313.99 100.488C314.429 99.0522 315.052 97.8364 315.857 96.8403C316.663 95.8442 317.623 95.0898 318.736 94.5771C319.864 94.0498 321.116 93.7861 322.493 93.7861C323.592 93.7861 324.595 93.9473 325.503 94.2695C326.426 94.5918 327.217 95.1118 327.876 95.8296C328.55 96.5474 329.063 97.4995 329.415 98.686C329.781 99.8579 329.964 101.308 329.964 103.037V118H322.515V103.015C322.515 102.062 322.383 101.337 322.12 100.839C321.856 100.327 321.475 99.9751 320.977 99.7847C320.479 99.5942 319.871 99.499 319.153 99.499C318.392 99.499 317.747 99.6455 317.22 99.9385C316.692 100.231 316.268 100.642 315.945 101.169C315.638 101.682 315.411 102.29 315.264 102.993C315.132 103.696 315.066 104.465 315.066 105.3ZM345.85 107.871H339.544C339.544 106.582 339.632 105.446 339.808 104.465C339.998 103.469 340.32 102.575 340.774 101.784C341.229 100.993 341.844 100.261 342.62 99.5869C343.309 99.0156 343.902 98.4663 344.4 97.939C344.898 97.4116 345.279 96.877 345.542 96.335C345.806 95.793 345.938 95.2144 345.938 94.5991C345.938 93.8374 345.828 93.2148 345.608 92.7314C345.403 92.248 345.088 91.8892 344.664 91.6548C344.253 91.4058 343.733 91.2812 343.104 91.2812C342.591 91.2812 342.107 91.4058 341.653 91.6548C341.214 91.9038 340.855 92.292 340.577 92.8193C340.298 93.332 340.145 94.0132 340.115 94.8628H332.667C332.71 92.6802 333.194 90.9077 334.117 89.5454C335.054 88.1685 336.299 87.165 337.852 86.5352C339.419 85.8906 341.17 85.5684 343.104 85.5684C345.242 85.5684 347.081 85.8979 348.619 86.5571C350.157 87.2163 351.336 88.1978 352.156 89.5015C352.977 90.7905 353.387 92.3799 353.387 94.2695C353.387 95.5293 353.145 96.6279 352.662 97.5654C352.193 98.4883 351.556 99.3525 350.75 100.158C349.959 100.949 349.073 101.799 348.091 102.707C347.242 103.454 346.663 104.216 346.355 104.992C346.048 105.754 345.879 106.713 345.85 107.871ZM338.643 114.55C338.643 113.496 339.024 112.617 339.786 111.914C340.547 111.196 341.536 110.837 342.752 110.837C343.968 110.837 344.957 111.196 345.718 111.914C346.48 112.617 346.861 113.496 346.861 114.55C346.861 115.605 346.48 116.491 345.718 117.209C344.957 117.912 343.968 118.264 342.752 118.264C341.536 118.264 340.547 117.912 339.786 117.209C339.024 116.491 338.643 115.605 338.643 114.55Z" fill="#424241"/>
<path d="M1363 15C1363 6.71573 1356.28 0 1348 0H1134V167H1348C1356.28 167 1363 160.284 1363 152V15Z" fill="#0F1319"/>
<path d="M1260.77 81.3079C1263.96 81.3079 1267.09 82.2553 1269.74 84.0303C1272.4 85.8053 1274.47 88.3282 1275.69 91.2799C1276.92 94.2316 1277.24 97.4796 1276.61 100.613C1275.99 103.747 1274.45 106.625 1272.19 108.884C1269.93 111.143 1267.05 112.682 1263.92 113.305C1260.79 113.928 1257.54 113.608 1254.59 112.386C1251.64 111.163 1249.11 109.093 1247.34 106.436C1245.56 103.78 1244.62 100.657 1244.62 97.4617C1244.62 93.1774 1246.32 89.0686 1249.35 86.0392C1252.38 83.0098 1256.48 81.3079 1260.77 81.3079ZM1260.77 75.9233C1256.51 75.9233 1252.35 77.1865 1248.8 79.5532C1245.26 81.9198 1242.5 85.2837 1240.87 89.2193C1239.24 93.1549 1238.81 97.4856 1239.64 101.664C1240.48 105.842 1242.53 109.679 1245.54 112.692C1248.55 115.704 1252.39 117.755 1256.57 118.586C1260.75 119.417 1265.08 118.991 1269.01 117.361C1272.95 115.73 1276.31 112.97 1278.68 109.428C1281.04 105.886 1282.31 101.722 1282.31 97.4617C1282.31 91.7493 1280.04 86.271 1276 82.2317C1271.96 78.1925 1266.48 75.9233 1260.77 75.9233Z" fill="white"/>
<path d="M1274.23 49H1220.38C1218.96 49 1217.59 49.5673 1216.58 50.5771C1215.57 51.5869 1215 52.9565 1215 54.3846V108.231C1215 109.659 1215.57 111.028 1216.58 112.038C1217.59 113.048 1218.96 113.615 1220.38 113.615H1231.15V108.231H1220.38V70.5384H1279.62V54.3846C1279.62 52.9565 1279.05 51.5869 1278.04 50.5771C1277.03 49.5673 1275.66 49 1274.23 49ZM1220.38 65.1538V54.3846H1274.23V65.1538H1220.38Z" fill="white"/>
<path d="M1255.38 89.3849V105.539L1268.85 97.4618L1255.38 89.3849Z" fill="white"/>
</svg>
