<svg width="1363" height="301" viewBox="0 0 1363 301" fill="none" xmlns="http://www.w3.org/2000/svg">
<rect width="1363" height="301" rx="15" fill="#F0F0F0"/>
<path d="M0 15C0 6.71573 6.71573 0 15 0H37V301H15C6.71573 301 0 294.284 0 286V15Z" fill="#0F1319"/>
<path d="M120.816 136.749V144H101.05V136.749H120.816ZM104.407 104.898V144H94.981V104.898H104.407ZM138.433 144.537C136.07 144.537 133.957 144.17 132.095 143.436C130.233 142.684 128.658 141.655 127.369 140.348C126.097 139.041 125.122 137.537 124.441 135.836C123.779 134.135 123.448 132.336 123.448 130.438V129.417C123.448 127.287 123.743 125.318 124.334 123.509C124.925 121.683 125.802 120.09 126.966 118.729C128.13 117.368 129.589 116.312 131.343 115.56C133.098 114.79 135.139 114.405 137.466 114.405C139.525 114.405 141.369 114.736 142.999 115.399C144.628 116.061 146.006 117.01 147.134 118.246C148.28 119.481 149.148 120.976 149.739 122.73C150.348 124.485 150.652 126.454 150.652 128.639V132.318H126.912V126.651H141.817V125.953C141.835 124.986 141.665 124.163 141.307 123.482C140.966 122.802 140.465 122.283 139.803 121.925C139.14 121.567 138.335 121.388 137.386 121.388C136.401 121.388 135.586 121.603 134.942 122.032C134.315 122.462 133.823 123.053 133.465 123.805C133.125 124.539 132.883 125.389 132.74 126.356C132.597 127.323 132.525 128.343 132.525 129.417V130.438C132.525 131.512 132.668 132.488 132.955 133.365C133.259 134.243 133.689 134.994 134.244 135.621C134.817 136.23 135.497 136.704 136.285 137.044C137.09 137.385 138.003 137.555 139.024 137.555C140.259 137.555 141.477 137.322 142.676 136.856C143.876 136.391 144.905 135.621 145.765 134.547L149.874 139.435C149.283 140.276 148.441 141.091 147.349 141.878C146.275 142.666 144.986 143.311 143.482 143.812C141.978 144.295 140.295 144.537 138.433 144.537ZM169.639 114.942V121.227H152.129V114.942H169.639ZM155.809 107.718H164.859V134.52C164.859 135.29 164.948 135.89 165.127 136.319C165.306 136.731 165.611 137.027 166.041 137.206C166.488 137.367 167.079 137.447 167.813 137.447C168.332 137.447 168.762 137.438 169.102 137.42C169.442 137.385 169.764 137.34 170.069 137.286V143.758C169.299 144.009 168.493 144.197 167.652 144.322C166.81 144.465 165.915 144.537 164.966 144.537C163.033 144.537 161.377 144.233 159.998 143.624C158.637 143.015 157.599 142.057 156.883 140.75C156.167 139.444 155.809 137.743 155.809 135.648V107.718ZM196.065 121.092V144H187.015V114.942H195.501L196.065 121.092ZM194.964 128.478L192.896 128.531C192.896 126.49 193.138 124.61 193.621 122.892C194.104 121.173 194.821 119.678 195.77 118.407C196.718 117.136 197.882 116.151 199.261 115.453C200.657 114.754 202.269 114.405 204.095 114.405C205.366 114.405 206.521 114.602 207.559 114.996C208.597 115.372 209.493 115.972 210.245 116.795C210.997 117.601 211.569 118.657 211.963 119.964C212.375 121.253 212.581 122.802 212.581 124.61V144H203.531V125.765C203.531 124.53 203.388 123.599 203.101 122.972C202.833 122.346 202.439 121.925 201.919 121.71C201.4 121.495 200.765 121.388 200.013 121.388C199.225 121.388 198.518 121.567 197.891 121.925C197.264 122.283 196.727 122.784 196.28 123.429C195.85 124.055 195.519 124.798 195.286 125.658C195.071 126.517 194.964 127.457 194.964 128.478ZM211.561 128.478L209.036 128.531C209.036 126.49 209.26 124.61 209.708 122.892C210.173 121.173 210.862 119.678 211.775 118.407C212.706 117.136 213.861 116.151 215.24 115.453C216.618 114.754 218.221 114.405 220.047 114.405C221.372 114.405 222.589 114.602 223.699 114.996C224.809 115.39 225.767 116.026 226.573 116.903C227.378 117.78 228.005 118.944 228.453 120.394C228.9 121.826 229.124 123.599 229.124 125.711V144H220.047V125.711C220.047 124.512 219.904 123.608 219.617 122.999C219.349 122.372 218.955 121.952 218.436 121.737C217.916 121.504 217.299 121.388 216.583 121.388C215.723 121.388 214.98 121.567 214.354 121.925C213.727 122.283 213.199 122.784 212.769 123.429C212.357 124.055 212.053 124.798 211.856 125.658C211.659 126.517 211.561 127.457 211.561 128.478ZM248.379 144.537C246.016 144.537 243.903 144.17 242.042 143.436C240.18 142.684 238.604 141.655 237.315 140.348C236.044 139.041 235.068 137.537 234.388 135.836C233.725 134.135 233.394 132.336 233.394 130.438V129.417C233.394 127.287 233.689 125.318 234.28 123.509C234.871 121.683 235.748 120.09 236.912 118.729C238.076 117.368 239.535 116.312 241.29 115.56C243.044 114.79 245.085 114.405 247.413 114.405C249.472 114.405 251.316 114.736 252.945 115.399C254.574 116.061 255.953 117.01 257.081 118.246C258.226 119.481 259.095 120.976 259.686 122.73C260.294 124.485 260.599 126.454 260.599 128.639V132.318H236.858V126.651H251.763V125.953C251.781 124.986 251.611 124.163 251.253 123.482C250.913 122.802 250.411 122.283 249.749 121.925C249.087 121.567 248.281 121.388 247.332 121.388C246.347 121.388 245.533 121.603 244.888 122.032C244.262 122.462 243.769 123.053 243.411 123.805C243.071 124.539 242.829 125.389 242.686 126.356C242.543 127.323 242.471 128.343 242.471 129.417V130.438C242.471 131.512 242.614 132.488 242.901 133.365C243.205 134.243 243.635 134.994 244.19 135.621C244.763 136.23 245.443 136.704 246.231 137.044C247.037 137.385 247.95 137.555 248.97 137.555C250.206 137.555 251.423 137.322 252.623 136.856C253.822 136.391 254.852 135.621 255.711 134.547L259.82 139.435C259.229 140.276 258.388 141.091 257.295 141.878C256.221 142.666 254.932 143.311 253.428 143.812C251.924 144.295 250.241 144.537 248.379 144.537ZM287.535 114.942V144H278.458V114.942H287.535ZM277.92 107.45C277.92 106.161 278.386 105.104 279.317 104.281C280.248 103.457 281.456 103.045 282.942 103.045C284.428 103.045 285.637 103.457 286.568 104.281C287.499 105.104 287.964 106.161 287.964 107.45C287.964 108.739 287.499 109.795 286.568 110.619C285.637 111.442 284.428 111.854 282.942 111.854C281.456 111.854 280.248 111.442 279.317 110.619C278.386 109.795 277.92 108.739 277.92 107.45ZM302.01 121.146V144H292.959V114.942H301.446L302.01 121.146ZM300.936 128.478L298.814 128.531C298.814 126.311 299.083 124.333 299.62 122.596C300.157 120.842 300.918 119.356 301.902 118.138C302.887 116.921 304.06 115.999 305.42 115.372C306.799 114.728 308.33 114.405 310.013 114.405C311.355 114.405 312.582 114.602 313.692 114.996C314.82 115.39 315.787 116.026 316.592 116.903C317.416 117.78 318.042 118.944 318.472 120.394C318.92 121.826 319.144 123.599 319.144 125.711V144H310.04V125.685C310.04 124.521 309.878 123.635 309.556 123.026C309.234 122.399 308.768 121.97 308.16 121.737C307.551 121.504 306.808 121.388 305.931 121.388C305 121.388 304.212 121.567 303.567 121.925C302.923 122.283 302.404 122.784 302.01 123.429C301.634 124.055 301.356 124.798 301.177 125.658C301.016 126.517 300.936 127.457 300.936 128.478Z" fill="black"/>
<path d="M110.816 65.2515V69.2505H97.8276V65.2515H110.816ZM99.3486 55.1172V80H94.2217V55.1172H99.3486ZM114.473 55.1172V80H109.363V55.1172H114.473ZM117.84 70.9424V70.5835C117.84 69.2277 118.034 67.9801 118.421 66.8408C118.808 65.6901 119.372 64.6932 120.113 63.8501C120.853 63.007 121.765 62.3519 122.847 61.8848C123.93 61.4062 125.171 61.167 126.573 61.167C127.974 61.167 129.222 61.4062 130.315 61.8848C131.409 62.3519 132.326 63.007 133.067 63.8501C133.819 64.6932 134.389 65.6901 134.776 66.8408C135.163 67.9801 135.357 69.2277 135.357 70.5835V70.9424C135.357 72.2868 135.163 73.5343 134.776 74.6851C134.389 75.8244 133.819 76.8213 133.067 77.6758C132.326 78.5189 131.415 79.174 130.333 79.6411C129.25 80.1082 128.008 80.3418 126.607 80.3418C125.206 80.3418 123.958 80.1082 122.864 79.6411C121.782 79.174 120.865 78.5189 120.113 77.6758C119.372 76.8213 118.808 75.8244 118.421 74.6851C118.034 73.5343 117.84 72.2868 117.84 70.9424ZM122.762 70.5835V70.9424C122.762 71.7171 122.83 72.4406 122.967 73.1128C123.104 73.785 123.32 74.3774 123.616 74.8901C123.924 75.3914 124.323 75.7845 124.812 76.0693C125.302 76.3542 125.901 76.4966 126.607 76.4966C127.291 76.4966 127.877 76.3542 128.367 76.0693C128.857 75.7845 129.25 75.3914 129.546 74.8901C129.843 74.3774 130.059 73.785 130.196 73.1128C130.344 72.4406 130.418 71.7171 130.418 70.9424V70.5835C130.418 69.8315 130.344 69.1252 130.196 68.4644C130.059 67.7922 129.837 67.1997 129.529 66.687C129.233 66.1629 128.84 65.7528 128.35 65.4565C127.86 65.1603 127.268 65.0122 126.573 65.0122C125.878 65.0122 125.285 65.1603 124.795 65.4565C124.317 65.7528 123.924 66.1629 123.616 66.687C123.32 67.1997 123.104 67.7922 122.967 68.4644C122.83 69.1252 122.762 69.8315 122.762 70.5835ZM149.319 75.5737V61.5088H154.241V80H149.61L149.319 75.5737ZM149.866 71.7798L151.319 71.7456C151.319 72.9761 151.176 74.1211 150.892 75.1807C150.607 76.2288 150.18 77.1403 149.61 77.915C149.04 78.6784 148.322 79.2765 147.457 79.7095C146.591 80.131 145.571 80.3418 144.397 80.3418C143.497 80.3418 142.666 80.2165 141.902 79.9658C141.15 79.7038 140.501 79.2993 139.954 78.7524C139.419 78.1942 138.997 77.4821 138.689 76.6162C138.393 75.7389 138.245 74.6851 138.245 73.4546V61.5088H143.167V73.4888C143.167 74.0356 143.23 74.4971 143.355 74.873C143.492 75.249 143.68 75.5566 143.919 75.7959C144.158 76.0352 144.437 76.2061 144.756 76.3086C145.087 76.4111 145.451 76.4624 145.85 76.4624C146.864 76.4624 147.662 76.2573 148.243 75.8472C148.835 75.437 149.251 74.8787 149.49 74.1724C149.741 73.4546 149.866 72.6571 149.866 71.7798ZM167.999 74.8901C167.999 74.5369 167.896 74.2179 167.691 73.9331C167.486 73.6483 167.104 73.3862 166.546 73.147C165.999 72.8963 165.207 72.6685 164.17 72.4634C163.236 72.2583 162.365 72.002 161.556 71.6943C160.758 71.3753 160.063 70.9937 159.471 70.5493C158.89 70.105 158.434 69.5809 158.104 68.9771C157.773 68.3618 157.608 67.6611 157.608 66.875C157.608 66.1003 157.773 65.3711 158.104 64.6875C158.445 64.0039 158.93 63.4001 159.556 62.876C160.194 62.3405 160.969 61.9246 161.88 61.6284C162.803 61.3208 163.84 61.167 164.991 61.167C166.597 61.167 167.976 61.4233 169.126 61.936C170.289 62.4487 171.177 63.1551 171.792 64.0552C172.419 64.9438 172.732 65.9578 172.732 67.0972H167.811C167.811 66.6187 167.708 66.1914 167.503 65.8154C167.309 65.4281 167.002 65.1261 166.58 64.9097C166.17 64.6818 165.634 64.5679 164.974 64.5679C164.427 64.5679 163.954 64.6647 163.555 64.8584C163.156 65.0407 162.849 65.2913 162.632 65.6104C162.427 65.918 162.325 66.2598 162.325 66.6357C162.325 66.9206 162.382 67.1769 162.496 67.4048C162.621 67.6213 162.82 67.8206 163.094 68.0029C163.367 68.1852 163.72 68.3561 164.153 68.5156C164.598 68.6637 165.145 68.8005 165.794 68.9258C167.127 69.1992 168.318 69.5581 169.366 70.0024C170.414 70.4354 171.246 71.0278 171.861 71.7798C172.476 72.5203 172.784 73.4945 172.784 74.7021C172.784 75.5225 172.601 76.2744 172.237 76.958C171.872 77.6416 171.348 78.2397 170.665 78.7524C169.981 79.2537 169.161 79.6468 168.204 79.9316C167.258 80.2051 166.193 80.3418 165.008 80.3418C163.287 80.3418 161.829 80.0342 160.633 79.4189C159.448 78.8037 158.548 78.0233 157.933 77.0776C157.329 76.1206 157.027 75.1408 157.027 74.1382H161.692C161.715 74.8104 161.886 75.3516 162.205 75.7617C162.535 76.1719 162.951 76.4681 163.453 76.6504C163.965 76.8327 164.518 76.9238 165.11 76.9238C165.748 76.9238 166.278 76.8384 166.7 76.6675C167.121 76.4852 167.44 76.2459 167.657 75.9497C167.885 75.6421 167.999 75.2889 167.999 74.8901ZM185.977 74.8901C185.977 74.5369 185.875 74.2179 185.669 73.9331C185.464 73.6483 185.083 73.3862 184.524 73.147C183.978 72.8963 183.186 72.6685 182.149 72.4634C181.215 72.2583 180.343 72.002 179.534 71.6943C178.737 71.3753 178.042 70.9937 177.449 70.5493C176.868 70.105 176.412 69.5809 176.082 68.9771C175.752 68.3618 175.586 67.6611 175.586 66.875C175.586 66.1003 175.752 65.3711 176.082 64.6875C176.424 64.0039 176.908 63.4001 177.535 62.876C178.173 62.3405 178.947 61.9246 179.859 61.6284C180.782 61.3208 181.819 61.167 182.969 61.167C184.576 61.167 185.954 61.4233 187.105 61.936C188.267 62.4487 189.156 63.1551 189.771 64.0552C190.398 64.9438 190.711 65.9578 190.711 67.0972H185.789C185.789 66.6187 185.687 66.1914 185.481 65.8154C185.288 65.4281 184.98 65.1261 184.559 64.9097C184.148 64.6818 183.613 64.5679 182.952 64.5679C182.405 64.5679 181.932 64.6647 181.534 64.8584C181.135 65.0407 180.827 65.2913 180.611 65.6104C180.406 65.918 180.303 66.2598 180.303 66.6357C180.303 66.9206 180.36 67.1769 180.474 67.4048C180.599 67.6213 180.799 67.8206 181.072 68.0029C181.346 68.1852 181.699 68.3561 182.132 68.5156C182.576 68.6637 183.123 68.8005 183.772 68.9258C185.105 69.1992 186.296 69.5581 187.344 70.0024C188.392 70.4354 189.224 71.0278 189.839 71.7798C190.455 72.5203 190.762 73.4945 190.762 74.7021C190.762 75.5225 190.58 76.2744 190.215 76.958C189.851 77.6416 189.327 78.2397 188.643 78.7524C187.959 79.2537 187.139 79.6468 186.182 79.9316C185.236 80.2051 184.171 80.3418 182.986 80.3418C181.266 80.3418 179.808 80.0342 178.611 79.4189C177.426 78.8037 176.526 78.0233 175.911 77.0776C175.307 76.1206 175.005 75.1408 175.005 74.1382H179.671C179.694 74.8104 179.865 75.3516 180.184 75.7617C180.514 76.1719 180.93 76.4681 181.431 76.6504C181.944 76.8327 182.496 76.9238 183.089 76.9238C183.727 76.9238 184.257 76.8384 184.678 76.6675C185.1 76.4852 185.419 76.2459 185.635 75.9497C185.863 75.6421 185.977 75.2889 185.977 74.8901ZM202.469 80.3418C201.033 80.3418 199.746 80.1139 198.606 79.6582C197.467 79.1911 196.499 78.5474 195.701 77.7271C194.915 76.9067 194.311 75.9554 193.89 74.873C193.468 73.7793 193.257 72.6172 193.257 71.3867V70.7031C193.257 69.3018 193.457 68.02 193.855 66.8579C194.254 65.6958 194.824 64.6875 195.564 63.833C196.316 62.9785 197.228 62.3234 198.299 61.8677C199.37 61.4006 200.577 61.167 201.922 61.167C203.232 61.167 204.394 61.3835 205.408 61.8164C206.422 62.2493 207.271 62.8646 207.955 63.6621C208.65 64.4596 209.174 65.4167 209.527 66.5332C209.88 67.6383 210.057 68.8688 210.057 70.2246V72.2754H195.359V68.9941H205.22V68.6182C205.22 67.9346 205.095 67.325 204.844 66.7896C204.605 66.2427 204.24 65.8097 203.75 65.4907C203.261 65.1717 202.634 65.0122 201.871 65.0122C201.221 65.0122 200.663 65.1546 200.196 65.4395C199.729 65.7243 199.347 66.123 199.051 66.6357C198.766 67.1484 198.549 67.7523 198.401 68.4473C198.265 69.1309 198.196 69.8828 198.196 70.7031V71.3867C198.196 72.1273 198.299 72.8109 198.504 73.4375C198.72 74.0641 199.022 74.6053 199.41 75.061C199.808 75.5168 200.287 75.87 200.845 76.1206C201.415 76.3713 202.059 76.4966 202.776 76.4966C203.665 76.4966 204.491 76.3257 205.254 75.9839C206.029 75.6307 206.696 75.1009 207.254 74.3945L209.646 76.9922C209.259 77.5505 208.729 78.0859 208.057 78.5986C207.396 79.1113 206.599 79.5329 205.665 79.8633C204.73 80.1823 203.665 80.3418 202.469 80.3418ZM218.055 61.5088V80H213.116V61.5088H218.055ZM212.808 56.6895C212.808 55.9717 213.059 55.3792 213.56 54.9121C214.061 54.445 214.734 54.2114 215.577 54.2114C216.408 54.2114 217.075 54.445 217.576 54.9121C218.089 55.3792 218.345 55.9717 218.345 56.6895C218.345 57.4072 218.089 57.9997 217.576 58.4668C217.075 58.9339 216.408 59.1675 215.577 59.1675C214.734 59.1675 214.061 58.9339 213.56 58.4668C213.059 57.9997 212.808 57.4072 212.808 56.6895ZM226.941 65.4565V80H222.02V61.5088H226.634L226.941 65.4565ZM226.224 70.105H224.891C224.891 68.7378 225.067 67.5073 225.42 66.4136C225.774 65.3084 226.269 64.3685 226.907 63.5938C227.545 62.8076 228.303 62.2095 229.18 61.7993C230.069 61.3778 231.06 61.167 232.154 61.167C233.02 61.167 233.812 61.2923 234.529 61.543C235.247 61.7936 235.862 62.1924 236.375 62.7393C236.899 63.2861 237.298 64.0096 237.571 64.9097C237.856 65.8097 237.999 66.9092 237.999 68.208V80H233.042V68.1909C233.042 67.3706 232.929 66.7326 232.701 66.2769C232.473 65.8211 232.137 65.5021 231.692 65.3198C231.259 65.1261 230.724 65.0293 230.086 65.0293C229.425 65.0293 228.85 65.1603 228.36 65.4224C227.881 65.6844 227.483 66.049 227.164 66.5161C226.856 66.9718 226.622 67.5073 226.463 68.1226C226.303 68.7378 226.224 69.3986 226.224 70.105ZM258.404 80H252.986L253.021 76.001H258.404C259.748 76.001 260.882 75.6991 261.805 75.0952C262.728 74.48 263.423 73.5856 263.89 72.4121C264.368 71.2386 264.607 69.8201 264.607 68.1567V66.9434C264.607 65.6673 264.471 64.5451 264.197 63.5767C263.935 62.6082 263.542 61.7936 263.018 61.1328C262.494 60.472 261.85 59.9764 261.087 59.646C260.324 59.3042 259.446 59.1333 258.455 59.1333H252.884V55.1172H258.455C260.118 55.1172 261.639 55.402 263.018 55.9717C264.408 56.5299 265.61 57.3332 266.624 58.3813C267.638 59.4295 268.418 60.6828 268.965 62.1411C269.524 63.5881 269.803 65.2002 269.803 66.9775V68.1567C269.803 69.9227 269.524 71.5348 268.965 72.9932C268.418 74.4515 267.638 75.7048 266.624 76.7529C265.621 77.7897 264.419 78.5929 263.018 79.1626C261.628 79.7209 260.09 80 258.404 80ZM255.892 55.1172V80H250.765V55.1172H255.892ZM278.143 65.542V80H273.221V61.5088H277.852L278.143 65.542ZM283.714 61.3892L283.628 65.9521C283.389 65.918 283.099 65.8895 282.757 65.8667C282.426 65.8325 282.125 65.8154 281.851 65.8154C281.156 65.8154 280.552 65.9066 280.04 66.0889C279.538 66.2598 279.117 66.5161 278.775 66.8579C278.444 67.1997 278.194 67.6156 278.023 68.1055C277.863 68.5954 277.772 69.1536 277.75 69.7803L276.758 69.4727C276.758 68.2764 276.878 67.1769 277.117 66.1743C277.356 65.1603 277.704 64.2773 278.16 63.5254C278.627 62.7734 279.196 62.1924 279.869 61.7822C280.541 61.3721 281.31 61.167 282.176 61.167C282.449 61.167 282.728 61.1898 283.013 61.2354C283.298 61.2695 283.532 61.3208 283.714 61.3892ZM284.739 70.9424V70.5835C284.739 69.2277 284.933 67.9801 285.32 66.8408C285.708 65.6901 286.272 64.6932 287.012 63.8501C287.753 63.007 288.664 62.3519 289.747 61.8848C290.829 61.4062 292.071 61.167 293.472 61.167C294.874 61.167 296.121 61.4062 297.215 61.8848C298.309 62.3519 299.226 63.007 299.966 63.8501C300.718 64.6932 301.288 65.6901 301.675 66.8408C302.063 67.9801 302.256 69.2277 302.256 70.5835V70.9424C302.256 72.2868 302.063 73.5343 301.675 74.6851C301.288 75.8244 300.718 76.8213 299.966 77.6758C299.226 78.5189 298.314 79.174 297.232 79.6411C296.15 80.1082 294.908 80.3418 293.506 80.3418C292.105 80.3418 290.857 80.1082 289.764 79.6411C288.681 79.174 287.764 78.5189 287.012 77.6758C286.272 76.8213 285.708 75.8244 285.32 74.6851C284.933 73.5343 284.739 72.2868 284.739 70.9424ZM289.661 70.5835V70.9424C289.661 71.7171 289.729 72.4406 289.866 73.1128C290.003 73.785 290.219 74.3774 290.516 74.8901C290.823 75.3914 291.222 75.7845 291.712 76.0693C292.202 76.3542 292.8 76.4966 293.506 76.4966C294.19 76.4966 294.777 76.3542 295.267 76.0693C295.757 75.7845 296.15 75.3914 296.446 74.8901C296.742 74.3774 296.958 73.785 297.095 73.1128C297.243 72.4406 297.317 71.7171 297.317 70.9424V70.5835C297.317 69.8315 297.243 69.1252 297.095 68.4644C296.958 67.7922 296.736 67.1997 296.429 66.687C296.132 66.1629 295.739 65.7528 295.25 65.4565C294.76 65.1603 294.167 65.0122 293.472 65.0122C292.777 65.0122 292.185 65.1603 291.695 65.4565C291.216 65.7528 290.823 66.1629 290.516 66.687C290.219 67.1997 290.003 67.7922 289.866 68.4644C289.729 69.1252 289.661 69.8315 289.661 70.5835ZM316.219 75.5737V61.5088H321.141V80H316.509L316.219 75.5737ZM316.766 71.7798L318.218 71.7456C318.218 72.9761 318.076 74.1211 317.791 75.1807C317.506 76.2288 317.079 77.1403 316.509 77.915C315.94 78.6784 315.222 79.2765 314.356 79.7095C313.49 80.131 312.47 80.3418 311.297 80.3418C310.397 80.3418 309.565 80.2165 308.802 79.9658C308.05 79.7038 307.4 79.2993 306.854 78.7524C306.318 78.1942 305.896 77.4821 305.589 76.6162C305.293 75.7389 305.145 74.6851 305.145 73.4546V61.5088H310.066V73.4888C310.066 74.0356 310.129 74.4971 310.254 74.873C310.391 75.249 310.579 75.5566 310.818 75.7959C311.058 76.0352 311.337 76.2061 311.656 76.3086C311.986 76.4111 312.351 76.4624 312.75 76.4624C313.764 76.4624 314.561 76.2573 315.142 75.8472C315.735 75.437 316.15 74.8787 316.39 74.1724C316.64 73.4546 316.766 72.6571 316.766 71.7798ZM324.9 53.75H329.822V75.7617L329.327 80H324.9V53.75ZM341.529 70.5664V70.9253C341.529 72.3039 341.381 73.5685 341.084 74.7192C340.8 75.87 340.355 76.8669 339.751 77.71C339.148 78.5417 338.396 79.1911 337.496 79.6582C336.607 80.1139 335.559 80.3418 334.351 80.3418C333.223 80.3418 332.243 80.1139 331.412 79.6582C330.591 79.2025 329.902 78.5588 329.344 77.7271C328.785 76.8953 328.335 75.9212 327.994 74.8047C327.652 73.6882 327.396 72.4691 327.225 71.1475V70.3613C327.396 69.0397 327.652 67.8206 327.994 66.7041C328.335 65.5876 328.785 64.6134 329.344 63.7817C329.902 62.95 330.591 62.3063 331.412 61.8506C332.232 61.3949 333.2 61.167 334.317 61.167C335.536 61.167 336.596 61.4006 337.496 61.8677C338.407 62.3234 339.159 62.9728 339.751 63.8159C340.355 64.6476 340.8 65.6388 341.084 66.7896C341.381 67.9289 341.529 69.1878 341.529 70.5664ZM336.607 70.9253V70.5664C336.607 69.8145 336.55 69.1081 336.436 68.4473C336.333 67.7751 336.151 67.1883 335.889 66.687C335.627 66.1743 335.268 65.7699 334.812 65.4736C334.368 65.1774 333.793 65.0293 333.086 65.0293C332.414 65.0293 331.845 65.1432 331.377 65.3711C330.91 65.599 330.523 65.918 330.215 66.3281C329.919 66.7383 329.697 67.2282 329.549 67.7979C329.401 68.3561 329.31 68.9714 329.275 69.6436V71.8823C329.31 72.7824 329.458 73.5799 329.72 74.2749C329.993 74.9585 330.403 75.4997 330.95 75.8984C331.508 76.2858 332.232 76.4795 333.121 76.4795C333.816 76.4795 334.391 76.3428 334.847 76.0693C335.302 75.7959 335.656 75.4085 335.906 74.9072C336.168 74.4059 336.351 73.8192 336.453 73.147C336.556 72.4634 336.607 71.7228 336.607 70.9253ZM349.783 61.5088V80H344.844V61.5088H349.783ZM344.537 56.6895C344.537 55.9717 344.787 55.3792 345.289 54.9121C345.79 54.445 346.462 54.2114 347.305 54.2114C348.137 54.2114 348.803 54.445 349.305 54.9121C349.817 55.3792 350.074 55.9717 350.074 56.6895C350.074 57.4072 349.817 57.9997 349.305 58.4668C348.803 58.9339 348.137 59.1675 347.305 59.1675C346.462 59.1675 345.79 58.9339 345.289 58.4668C344.787 57.9997 344.537 57.4072 344.537 56.6895Z" fill="#888888"/>
<rect x="92" y="181" width="1179" height="80" rx="13.3333" fill="#CCCCCC"/>
<rect x="107" y="196.334" width="208" height="49.3333" rx="4.66667" fill="#888888" stroke="#888888" stroke-width="4"/>
<path d="M149.979 213.167H155.948C157.115 213.167 158.128 213.341 158.99 213.688C159.851 214.035 160.514 214.549 160.979 215.23C161.451 215.91 161.687 216.751 161.687 217.751C161.687 218.619 161.552 219.344 161.281 219.928C161.01 220.511 160.632 220.994 160.146 221.376C159.667 221.751 159.108 222.06 158.469 222.303L157.271 222.98H152.26L152.24 220.157H155.948C156.413 220.157 156.799 220.073 157.104 219.907C157.41 219.74 157.639 219.504 157.792 219.198C157.951 218.886 158.031 218.514 158.031 218.084C158.031 217.646 157.951 217.271 157.792 216.959C157.632 216.646 157.396 216.407 157.083 216.24C156.778 216.073 156.399 215.99 155.948 215.99H153.635V228.334H149.979V213.167ZM158.281 228.334L154.927 221.626L158.802 221.605L162.198 228.178V228.334H158.281ZM169.583 225.501V220.855C169.583 220.535 169.538 220.261 169.448 220.032C169.358 219.803 169.215 219.626 169.021 219.501C168.826 219.369 168.566 219.303 168.24 219.303C167.976 219.303 167.75 219.348 167.562 219.438C167.375 219.528 167.233 219.664 167.135 219.844C167.038 220.025 166.99 220.254 166.99 220.532H163.479C163.479 220.011 163.594 219.528 163.823 219.084C164.059 218.632 164.392 218.24 164.823 217.907C165.26 217.573 165.781 217.317 166.385 217.136C166.997 216.948 167.677 216.855 168.427 216.855C169.323 216.855 170.122 217.004 170.823 217.303C171.531 217.601 172.09 218.049 172.5 218.646C172.91 219.237 173.115 219.98 173.115 220.876V225.49C173.115 226.226 173.156 226.785 173.24 227.167C173.323 227.542 173.441 227.872 173.594 228.157V228.334H170.073C169.906 227.987 169.781 227.563 169.698 227.063C169.622 226.556 169.583 226.035 169.583 225.501ZM170.01 221.448L170.031 223.323H168.479C168.153 223.323 167.875 223.369 167.646 223.459C167.424 223.549 167.243 223.674 167.104 223.834C166.972 223.987 166.875 224.16 166.812 224.355C166.757 224.549 166.729 224.754 166.729 224.969C166.729 225.178 166.778 225.365 166.875 225.532C166.979 225.692 167.118 225.817 167.292 225.907C167.465 225.997 167.66 226.042 167.875 226.042C168.264 226.042 168.594 225.969 168.865 225.823C169.142 225.671 169.354 225.487 169.5 225.271C169.646 225.056 169.719 224.855 169.719 224.667L170.49 226.105C170.351 226.382 170.191 226.664 170.01 226.948C169.837 227.233 169.618 227.497 169.354 227.74C169.097 227.976 168.781 228.171 168.406 228.323C168.031 228.469 167.576 228.542 167.042 228.542C166.347 228.542 165.708 228.4 165.125 228.115C164.549 227.83 164.087 227.435 163.74 226.928C163.392 226.414 163.219 225.823 163.219 225.157C163.219 224.573 163.323 224.053 163.531 223.594C163.747 223.136 164.069 222.747 164.5 222.428C164.931 222.108 165.479 221.865 166.146 221.698C166.812 221.532 167.597 221.448 168.5 221.448H170.01ZM180.969 225.167C180.969 224.973 180.903 224.806 180.771 224.667C180.646 224.521 180.424 224.389 180.104 224.271C179.785 224.146 179.337 224.021 178.76 223.896C178.212 223.778 177.694 223.622 177.208 223.428C176.729 223.233 176.309 222.997 175.948 222.719C175.587 222.442 175.302 222.112 175.094 221.73C174.892 221.348 174.792 220.91 174.792 220.417C174.792 219.938 174.892 219.487 175.094 219.063C175.302 218.632 175.604 218.254 176 217.928C176.403 217.594 176.892 217.334 177.469 217.146C178.045 216.952 178.701 216.855 179.437 216.855C180.451 216.855 181.326 217.011 182.062 217.323C182.799 217.629 183.365 218.06 183.76 218.615C184.163 219.164 184.365 219.799 184.365 220.521H180.854C180.854 220.237 180.806 219.994 180.708 219.792C180.618 219.591 180.469 219.438 180.26 219.334C180.052 219.223 179.774 219.167 179.427 219.167C179.184 219.167 178.962 219.212 178.76 219.303C178.566 219.393 178.41 219.518 178.292 219.678C178.174 219.837 178.115 220.025 178.115 220.24C178.115 220.393 178.149 220.532 178.219 220.657C178.295 220.775 178.41 220.886 178.562 220.99C178.715 221.087 178.91 221.178 179.146 221.261C179.382 221.337 179.667 221.407 180 221.469C180.757 221.608 181.465 221.806 182.125 222.063C182.785 222.32 183.319 222.685 183.729 223.157C184.146 223.629 184.354 224.264 184.354 225.063C184.354 225.563 184.24 226.025 184.01 226.448C183.781 226.865 183.451 227.233 183.021 227.553C182.59 227.865 182.073 228.108 181.469 228.282C180.865 228.455 180.184 228.542 179.427 228.542C178.351 228.542 177.441 228.351 176.698 227.969C175.955 227.58 175.392 227.094 175.01 226.511C174.635 225.921 174.448 225.323 174.448 224.719H177.719C177.733 225.067 177.816 225.351 177.969 225.573C178.128 225.796 178.34 225.959 178.604 226.063C178.868 226.167 179.174 226.219 179.521 226.219C179.84 226.219 180.104 226.174 180.312 226.084C180.528 225.994 180.691 225.872 180.802 225.719C180.913 225.56 180.969 225.376 180.969 225.167ZM189.542 219.23V232.667H186.031V217.063H189.302L189.542 219.23ZM196.458 222.563V222.782C196.458 223.601 196.365 224.362 196.177 225.063C195.99 225.764 195.712 226.376 195.344 226.896C194.976 227.417 194.517 227.823 193.969 228.115C193.427 228.4 192.799 228.542 192.083 228.542C191.41 228.542 190.83 228.393 190.344 228.094C189.858 227.796 189.451 227.382 189.125 226.855C188.799 226.327 188.535 225.723 188.333 225.042C188.132 224.362 187.972 223.643 187.854 222.886V222.605C187.972 221.792 188.132 221.039 188.333 220.344C188.535 219.643 188.799 219.032 189.125 218.511C189.451 217.99 189.854 217.584 190.333 217.292C190.819 217.001 191.399 216.855 192.073 216.855C192.788 216.855 193.417 216.99 193.958 217.261C194.507 217.532 194.965 217.921 195.333 218.428C195.708 218.928 195.99 219.528 196.177 220.23C196.365 220.931 196.458 221.709 196.458 222.563ZM192.948 222.782V222.563C192.948 222.126 192.917 221.726 192.854 221.365C192.792 220.997 192.691 220.678 192.552 220.407C192.42 220.136 192.243 219.928 192.021 219.782C191.799 219.636 191.524 219.563 191.198 219.563C190.823 219.563 190.507 219.622 190.25 219.74C190 219.851 189.799 220.025 189.646 220.261C189.5 220.49 189.396 220.778 189.333 221.126C189.278 221.466 189.253 221.865 189.26 222.323V223.178C189.247 223.705 189.299 224.171 189.417 224.573C189.535 224.969 189.74 225.278 190.031 225.501C190.323 225.723 190.719 225.834 191.219 225.834C191.552 225.834 191.83 225.757 192.052 225.605C192.274 225.445 192.451 225.226 192.583 224.948C192.715 224.664 192.809 224.337 192.865 223.969C192.92 223.601 192.948 223.205 192.948 222.782ZM198.052 212.334H201.563V225.563L201.198 228.334H198.052V212.334ZM208.479 222.573V222.792C208.479 223.646 208.392 224.424 208.219 225.126C208.045 225.827 207.778 226.435 207.417 226.948C207.056 227.455 206.601 227.848 206.052 228.126C205.503 228.403 204.854 228.542 204.104 228.542C203.424 228.542 202.84 228.396 202.354 228.105C201.868 227.806 201.462 227.396 201.135 226.876C200.809 226.348 200.545 225.74 200.344 225.053C200.142 224.358 199.983 223.615 199.865 222.823V222.563C199.983 221.778 200.142 221.042 200.344 220.355C200.545 219.66 200.809 219.053 201.135 218.532C201.462 218.004 201.865 217.594 202.344 217.303C202.83 217.004 203.41 216.855 204.083 216.855C204.84 216.855 205.493 216.997 206.042 217.282C206.597 217.567 207.056 217.966 207.417 218.48C207.778 218.994 208.045 219.598 208.219 220.292C208.392 220.987 208.479 221.747 208.479 222.573ZM204.969 222.792V222.573C204.969 222.164 204.944 221.778 204.896 221.417C204.847 221.056 204.76 220.737 204.635 220.459C204.51 220.181 204.333 219.962 204.104 219.803C203.875 219.643 203.576 219.563 203.208 219.563C202.833 219.563 202.517 219.626 202.26 219.751C202.01 219.876 201.809 220.056 201.656 220.292C201.51 220.521 201.406 220.806 201.344 221.146C201.281 221.48 201.253 221.858 201.26 222.282V223.105C201.247 223.681 201.299 224.174 201.417 224.584C201.535 224.994 201.74 225.306 202.031 225.521C202.323 225.737 202.722 225.844 203.229 225.844C203.604 225.844 203.906 225.771 204.135 225.626C204.372 225.48 204.549 225.271 204.667 225.001C204.785 224.73 204.865 224.407 204.906 224.032C204.948 223.657 204.969 223.244 204.969 222.792ZM215.5 228.542C214.583 228.542 213.764 228.4 213.042 228.115C212.319 227.823 211.708 227.424 211.208 226.917C210.715 226.41 210.337 225.827 210.073 225.167C209.816 224.507 209.687 223.81 209.687 223.073V222.678C209.687 221.851 209.802 221.087 210.031 220.386C210.26 219.678 210.601 219.06 211.052 218.532C211.503 218.004 212.069 217.594 212.75 217.303C213.431 217.004 214.222 216.855 215.125 216.855C215.924 216.855 216.639 216.983 217.271 217.24C217.903 217.497 218.437 217.865 218.875 218.344C219.319 218.823 219.656 219.403 219.885 220.084C220.122 220.764 220.24 221.528 220.24 222.376V223.803H211.031V221.605H216.812V221.334C216.819 220.959 216.753 220.639 216.615 220.376C216.483 220.112 216.288 219.91 216.031 219.771C215.774 219.632 215.462 219.563 215.094 219.563C214.712 219.563 214.396 219.646 214.146 219.813C213.903 219.98 213.712 220.209 213.573 220.501C213.441 220.785 213.347 221.115 213.292 221.49C213.236 221.865 213.208 222.261 213.208 222.678V223.073C213.208 223.49 213.264 223.869 213.375 224.209C213.493 224.549 213.66 224.841 213.875 225.084C214.097 225.32 214.361 225.504 214.667 225.636C214.979 225.768 215.333 225.834 215.729 225.834C216.208 225.834 216.681 225.744 217.146 225.563C217.611 225.382 218.01 225.084 218.344 224.667L219.937 226.563C219.708 226.889 219.382 227.205 218.958 227.511C218.542 227.817 218.042 228.067 217.458 228.261C216.875 228.448 216.222 228.542 215.5 228.542ZM225.208 219.855V228.334H221.698V217.063H224.979L225.208 219.855ZM228.542 216.98L228.479 220.24C228.34 220.226 228.153 220.209 227.917 220.188C227.681 220.167 227.483 220.157 227.323 220.157C226.913 220.157 226.559 220.205 226.26 220.303C225.969 220.393 225.726 220.532 225.531 220.719C225.344 220.9 225.205 221.129 225.115 221.407C225.031 221.685 224.993 222.007 225 222.376L224.365 221.959C224.365 221.202 224.438 220.514 224.583 219.896C224.736 219.271 224.951 218.733 225.229 218.282C225.507 217.823 225.844 217.473 226.24 217.23C226.635 216.98 227.08 216.855 227.573 216.855C227.747 216.855 227.917 216.865 228.083 216.886C228.257 216.907 228.41 216.938 228.542 216.98ZM233.292 219.855V228.334H229.781V217.063H233.062L233.292 219.855ZM236.625 216.98L236.562 220.24C236.424 220.226 236.236 220.209 236 220.188C235.764 220.167 235.566 220.157 235.406 220.157C234.997 220.157 234.642 220.205 234.344 220.303C234.052 220.393 233.809 220.532 233.615 220.719C233.427 220.9 233.288 221.129 233.198 221.407C233.115 221.685 233.076 222.007 233.083 222.376L232.448 221.959C232.448 221.202 232.521 220.514 232.667 219.896C232.819 219.271 233.035 218.733 233.312 218.282C233.59 217.823 233.927 217.473 234.323 217.23C234.719 216.98 235.163 216.855 235.656 216.855C235.83 216.855 236 216.865 236.167 216.886C236.34 216.907 236.493 216.938 236.625 216.98ZM241.479 227.011L244.396 217.063H248.167L243.635 230.011C243.538 230.296 243.41 230.601 243.25 230.928C243.09 231.261 242.872 231.577 242.594 231.876C242.316 232.174 241.958 232.417 241.521 232.605C241.09 232.792 240.556 232.886 239.917 232.886C239.576 232.886 239.326 232.869 239.167 232.834C239.014 232.806 238.778 232.754 238.458 232.678V230.167C238.549 230.167 238.625 230.167 238.688 230.167C238.757 230.167 238.833 230.167 238.917 230.167C239.292 230.167 239.59 230.129 239.813 230.053C240.042 229.976 240.215 229.865 240.333 229.719C240.458 229.573 240.556 229.396 240.625 229.188L241.479 227.011ZM240.74 217.063L242.958 224.948L243.344 228.667H240.99L236.979 217.063H240.74ZM260.615 223.188H256.844V220.365H260.615C261.128 220.365 261.545 220.278 261.865 220.105C262.184 219.931 262.417 219.692 262.563 219.386C262.715 219.073 262.792 218.723 262.792 218.334C262.792 217.917 262.715 217.532 262.563 217.178C262.417 216.823 262.184 216.539 261.865 216.323C261.545 216.101 261.128 215.99 260.615 215.99H258.219V228.334H254.563V213.167H260.615C261.83 213.167 262.875 213.389 263.75 213.834C264.632 214.278 265.309 214.889 265.781 215.667C266.253 216.438 266.49 217.32 266.49 218.313C266.49 219.292 266.253 220.146 265.781 220.876C265.309 221.605 264.632 222.174 263.75 222.584C262.875 222.987 261.83 223.188 260.615 223.188ZM272 217.063V228.334H268.479V217.063H272ZM268.271 214.157C268.271 213.657 268.451 213.247 268.813 212.928C269.174 212.608 269.642 212.448 270.219 212.448C270.795 212.448 271.264 212.608 271.625 212.928C271.986 213.247 272.167 213.657 272.167 214.157C272.167 214.657 271.986 215.067 271.625 215.386C271.264 215.705 270.795 215.865 270.219 215.865C269.642 215.865 269.174 215.705 268.813 215.386C268.451 215.067 268.271 214.657 268.271 214.157Z" fill="white"/>
<rect x="339" y="196.334" width="208" height="49.3333" rx="4.66667" fill="#888888" stroke="#888888" stroke-width="4"/>
<path d="M415.938 223.188H412.167V220.365H415.938C416.451 220.365 416.868 220.278 417.188 220.105C417.507 219.931 417.74 219.692 417.885 219.386C418.038 219.073 418.115 218.723 418.115 218.334C418.115 217.917 418.038 217.532 417.885 217.178C417.74 216.823 417.507 216.539 417.188 216.323C416.868 216.101 416.451 215.99 415.938 215.99H413.542V228.334H409.885V213.167H415.938C417.153 213.167 418.198 213.389 419.073 213.834C419.955 214.278 420.632 214.889 421.104 215.667C421.576 216.438 421.813 217.32 421.813 218.313C421.813 219.292 421.576 220.146 421.104 220.876C420.632 221.605 419.955 222.174 419.073 222.584C418.198 222.987 417.153 223.188 415.938 223.188ZM427.24 227.011L430.156 217.063H433.927L429.396 230.011C429.299 230.296 429.17 230.601 429.01 230.928C428.851 231.261 428.632 231.577 428.354 231.876C428.076 232.174 427.719 232.417 427.281 232.605C426.851 232.792 426.316 232.886 425.677 232.886C425.337 232.886 425.087 232.869 424.927 232.834C424.774 232.806 424.538 232.754 424.219 232.678V230.167C424.309 230.167 424.385 230.167 424.448 230.167C424.517 230.167 424.594 230.167 424.677 230.167C425.052 230.167 425.351 230.129 425.573 230.053C425.802 229.976 425.976 229.865 426.094 229.719C426.219 229.573 426.316 229.396 426.385 229.188L427.24 227.011ZM426.5 217.063L428.719 224.948L429.104 228.667H426.75L422.74 217.063H426.5ZM440.781 217.063V219.501H433.99V217.063H440.781ZM435.417 214.261H438.927V224.657C438.927 224.955 438.962 225.188 439.031 225.355C439.101 225.514 439.219 225.629 439.385 225.698C439.559 225.761 439.788 225.792 440.073 225.792C440.274 225.792 440.441 225.789 440.573 225.782C440.705 225.768 440.83 225.751 440.948 225.73V228.24C440.649 228.337 440.337 228.41 440.01 228.459C439.684 228.514 439.337 228.542 438.969 228.542C438.219 228.542 437.576 228.424 437.042 228.188C436.514 227.952 436.111 227.58 435.833 227.073C435.556 226.567 435.417 225.907 435.417 225.094V214.261ZM445.615 212.334V228.334H442.104V212.334H445.615ZM445.198 222.313L444.375 222.334C444.375 221.542 444.472 220.813 444.667 220.146C444.861 219.48 445.139 218.9 445.5 218.407C445.861 217.914 446.295 217.532 446.802 217.261C447.309 216.99 447.872 216.855 448.49 216.855C449.045 216.855 449.552 216.935 450.01 217.094C450.476 217.254 450.875 217.511 451.208 217.865C451.549 218.219 451.809 218.681 451.99 219.251C452.177 219.82 452.271 220.514 452.271 221.334V228.334H448.74V221.313C448.74 220.855 448.674 220.501 448.542 220.251C448.417 219.994 448.236 219.817 448 219.719C447.764 219.615 447.476 219.563 447.135 219.563C446.726 219.563 446.392 219.632 446.135 219.771C445.878 219.91 445.681 220.105 445.542 220.355C445.41 220.598 445.319 220.886 445.271 221.219C445.222 221.553 445.198 221.917 445.198 222.313ZM453.781 222.813V222.594C453.781 221.768 453.899 221.007 454.135 220.313C454.372 219.612 454.719 219.004 455.177 218.49C455.635 217.976 456.201 217.577 456.875 217.292C457.549 217.001 458.326 216.855 459.208 216.855C460.097 216.855 460.878 217.001 461.552 217.292C462.233 217.577 462.802 217.976 463.26 218.49C463.719 219.004 464.066 219.612 464.302 220.313C464.538 221.007 464.656 221.768 464.656 222.594V222.813C464.656 223.632 464.538 224.393 464.302 225.094C464.066 225.789 463.719 226.396 463.26 226.917C462.802 227.431 462.236 227.83 461.563 228.115C460.889 228.4 460.111 228.542 459.229 228.542C458.347 228.542 457.566 228.4 456.885 228.115C456.205 227.83 455.635 227.431 455.177 226.917C454.719 226.396 454.372 225.789 454.135 225.094C453.899 224.393 453.781 223.632 453.781 222.813ZM457.292 222.594V222.813C457.292 223.237 457.323 223.632 457.385 224.001C457.448 224.369 457.552 224.692 457.698 224.969C457.844 225.24 458.042 225.452 458.292 225.605C458.542 225.757 458.854 225.834 459.229 225.834C459.597 225.834 459.903 225.757 460.146 225.605C460.396 225.452 460.594 225.24 460.74 224.969C460.885 224.692 460.99 224.369 461.052 224.001C461.115 223.632 461.146 223.237 461.146 222.813V222.594C461.146 222.185 461.115 221.799 461.052 221.438C460.99 221.07 460.885 220.747 460.74 220.469C460.594 220.185 460.396 219.962 460.146 219.803C459.896 219.643 459.583 219.563 459.208 219.563C458.84 219.563 458.531 219.643 458.281 219.803C458.038 219.962 457.844 220.185 457.698 220.469C457.552 220.747 457.448 221.07 457.385 221.438C457.323 221.799 457.292 222.185 457.292 222.594ZM469.667 219.469V228.334H466.156V217.063H469.448L469.667 219.469ZM469.25 222.313L468.427 222.334C468.427 221.473 468.531 220.705 468.74 220.032C468.948 219.351 469.243 218.775 469.625 218.303C470.007 217.83 470.462 217.473 470.99 217.23C471.524 216.98 472.118 216.855 472.771 216.855C473.292 216.855 473.767 216.931 474.198 217.084C474.635 217.237 475.01 217.483 475.323 217.823C475.642 218.164 475.885 218.615 476.052 219.178C476.226 219.733 476.313 220.421 476.313 221.24V228.334H472.781V221.23C472.781 220.778 472.719 220.435 472.594 220.198C472.469 219.955 472.288 219.789 472.052 219.698C471.816 219.608 471.528 219.563 471.188 219.563C470.826 219.563 470.521 219.632 470.271 219.771C470.021 219.91 469.819 220.105 469.667 220.355C469.521 220.598 469.413 220.886 469.344 221.219C469.281 221.553 469.25 221.917 469.25 222.313Z" fill="white"/>
<rect x="571" y="196.612" width="208" height="49.3333" rx="4.66667" fill="#888888" stroke="#888888" stroke-width="4"/>
<rect x="803" y="196.123" width="208" height="49.3333" rx="4.66667" fill="#888888" stroke="#888888" stroke-width="4"/>
<rect x="1035" y="196.056" width="208" height="49.3333" rx="4.66667" fill="#888888" stroke="#888888" stroke-width="4"/>
<path d="M651.073 225.799V228.612H643.406V225.799H651.073ZM644.708 213.445V228.612H641.052V213.445H644.708ZM658.302 225.779V221.133C658.302 220.813 658.257 220.539 658.167 220.31C658.076 220.081 657.934 219.904 657.74 219.779C657.545 219.647 657.285 219.581 656.958 219.581C656.694 219.581 656.469 219.626 656.281 219.716C656.094 219.806 655.951 219.942 655.854 220.122C655.757 220.303 655.708 220.532 655.708 220.81H652.198C652.198 220.289 652.312 219.806 652.542 219.362C652.778 218.91 653.111 218.518 653.542 218.185C653.979 217.851 654.5 217.595 655.104 217.414C655.715 217.226 656.396 217.133 657.146 217.133C658.042 217.133 658.84 217.282 659.542 217.581C660.25 217.879 660.809 218.327 661.219 218.924C661.628 219.515 661.833 220.258 661.833 221.154V225.768C661.833 226.504 661.875 227.063 661.958 227.445C662.042 227.82 662.16 228.15 662.312 228.435V228.612H658.792C658.625 228.265 658.5 227.841 658.417 227.341C658.34 226.834 658.302 226.313 658.302 225.779ZM658.729 221.726L658.75 223.601H657.198C656.872 223.601 656.594 223.647 656.365 223.737C656.142 223.827 655.962 223.952 655.823 224.112C655.691 224.265 655.594 224.438 655.531 224.633C655.476 224.827 655.448 225.032 655.448 225.247C655.448 225.456 655.497 225.643 655.594 225.81C655.698 225.97 655.837 226.095 656.01 226.185C656.184 226.275 656.378 226.32 656.594 226.32C656.983 226.32 657.312 226.247 657.583 226.101C657.861 225.949 658.073 225.765 658.219 225.549C658.365 225.334 658.437 225.133 658.437 224.945L659.208 226.383C659.069 226.66 658.91 226.942 658.729 227.226C658.556 227.511 658.337 227.775 658.073 228.018C657.816 228.254 657.5 228.449 657.125 228.601C656.75 228.747 656.295 228.82 655.76 228.82C655.066 228.82 654.427 228.678 653.844 228.393C653.267 228.108 652.806 227.713 652.458 227.206C652.111 226.692 651.937 226.101 651.937 225.435C651.937 224.851 652.042 224.331 652.25 223.872C652.465 223.414 652.788 223.025 653.219 222.706C653.649 222.386 654.198 222.143 654.865 221.976C655.531 221.81 656.316 221.726 657.219 221.726H658.729ZM667.323 220.133V228.612H663.812V217.341H667.094L667.323 220.133ZM670.656 217.258L670.594 220.518C670.455 220.504 670.267 220.487 670.031 220.466C669.795 220.445 669.597 220.435 669.437 220.435C669.028 220.435 668.674 220.483 668.375 220.581C668.083 220.671 667.84 220.81 667.646 220.997C667.458 221.178 667.319 221.407 667.229 221.685C667.146 221.963 667.108 222.285 667.115 222.654L666.479 222.237C666.479 221.48 666.552 220.792 666.698 220.174C666.851 219.549 667.066 219.011 667.344 218.56C667.622 218.101 667.958 217.751 668.354 217.508C668.75 217.258 669.194 217.133 669.687 217.133C669.861 217.133 670.031 217.143 670.198 217.164C670.372 217.185 670.524 217.216 670.656 217.258ZM677.406 225.779V221.133C677.406 220.813 677.361 220.539 677.271 220.31C677.181 220.081 677.038 219.904 676.844 219.779C676.649 219.647 676.389 219.581 676.063 219.581C675.799 219.581 675.573 219.626 675.385 219.716C675.198 219.806 675.056 219.942 674.958 220.122C674.861 220.303 674.813 220.532 674.813 220.81H671.302C671.302 220.289 671.417 219.806 671.646 219.362C671.882 218.91 672.215 218.518 672.646 218.185C673.083 217.851 673.604 217.595 674.208 217.414C674.819 217.226 675.5 217.133 676.25 217.133C677.146 217.133 677.944 217.282 678.646 217.581C679.354 217.879 679.913 218.327 680.323 218.924C680.733 219.515 680.938 220.258 680.938 221.154V225.768C680.938 226.504 680.979 227.063 681.063 227.445C681.146 227.82 681.264 228.15 681.417 228.435V228.612H677.896C677.729 228.265 677.604 227.841 677.521 227.341C677.444 226.834 677.406 226.313 677.406 225.779ZM677.833 221.726L677.854 223.601H676.302C675.976 223.601 675.698 223.647 675.469 223.737C675.247 223.827 675.066 223.952 674.927 224.112C674.795 224.265 674.698 224.438 674.635 224.633C674.58 224.827 674.552 225.032 674.552 225.247C674.552 225.456 674.601 225.643 674.698 225.81C674.802 225.97 674.941 226.095 675.115 226.185C675.288 226.275 675.483 226.32 675.698 226.32C676.087 226.32 676.417 226.247 676.688 226.101C676.965 225.949 677.177 225.765 677.323 225.549C677.469 225.334 677.542 225.133 677.542 224.945L678.313 226.383C678.174 226.66 678.014 226.942 677.833 227.226C677.66 227.511 677.441 227.775 677.177 228.018C676.92 228.254 676.604 228.449 676.229 228.601C675.854 228.747 675.399 228.82 674.865 228.82C674.17 228.82 673.531 228.678 672.948 228.393C672.372 228.108 671.91 227.713 671.563 227.206C671.215 226.692 671.042 226.101 671.042 225.435C671.042 224.851 671.146 224.331 671.354 223.872C671.569 223.414 671.892 223.025 672.323 222.706C672.753 222.386 673.302 222.143 673.969 221.976C674.635 221.81 675.42 221.726 676.323 221.726H677.833ZM686.781 226.206L689 217.341H692.698L689.01 228.612H686.823L686.781 226.206ZM685.469 217.341L687.656 226.206L687.635 228.612H685.437L681.76 217.341H685.469ZM699.052 228.82C698.135 228.82 697.316 228.678 696.594 228.393C695.872 228.101 695.26 227.702 694.76 227.195C694.267 226.688 693.889 226.105 693.625 225.445C693.368 224.785 693.24 224.088 693.24 223.351V222.956C693.24 222.129 693.354 221.365 693.583 220.664C693.812 219.956 694.153 219.338 694.604 218.81C695.056 218.282 695.622 217.872 696.302 217.581C696.983 217.282 697.774 217.133 698.677 217.133C699.476 217.133 700.191 217.261 700.823 217.518C701.455 217.775 701.99 218.143 702.427 218.622C702.872 219.101 703.208 219.681 703.437 220.362C703.674 221.042 703.792 221.806 703.792 222.654V224.081H694.583V221.883H700.365V221.612C700.372 221.237 700.306 220.917 700.167 220.654C700.035 220.39 699.84 220.188 699.583 220.049C699.326 219.91 699.014 219.841 698.646 219.841C698.264 219.841 697.948 219.924 697.698 220.091C697.455 220.258 697.264 220.487 697.125 220.779C696.993 221.063 696.899 221.393 696.844 221.768C696.788 222.143 696.76 222.539 696.76 222.956V223.351C696.76 223.768 696.816 224.147 696.927 224.487C697.045 224.827 697.212 225.119 697.427 225.362C697.649 225.598 697.913 225.782 698.219 225.914C698.531 226.046 698.885 226.112 699.281 226.112C699.76 226.112 700.233 226.022 700.698 225.841C701.163 225.66 701.562 225.362 701.896 224.945L703.49 226.841C703.26 227.167 702.934 227.483 702.51 227.789C702.094 228.095 701.594 228.345 701.01 228.539C700.427 228.726 699.774 228.82 699.052 228.82ZM708.927 212.612V228.612H705.406V212.612H708.927Z" fill="white"/>
<path d="M651.073 225.799V228.612H643.406V225.799H651.073ZM644.708 213.445V228.612H641.052V213.445H644.708ZM658.302 225.779V221.133C658.302 220.813 658.257 220.539 658.167 220.31C658.076 220.081 657.934 219.904 657.74 219.779C657.545 219.647 657.285 219.581 656.958 219.581C656.694 219.581 656.469 219.626 656.281 219.716C656.094 219.806 655.951 219.942 655.854 220.122C655.757 220.303 655.708 220.532 655.708 220.81H652.198C652.198 220.289 652.312 219.806 652.542 219.362C652.778 218.91 653.111 218.518 653.542 218.185C653.979 217.851 654.5 217.595 655.104 217.414C655.715 217.226 656.396 217.133 657.146 217.133C658.042 217.133 658.84 217.282 659.542 217.581C660.25 217.879 660.809 218.327 661.219 218.924C661.628 219.515 661.833 220.258 661.833 221.154V225.768C661.833 226.504 661.875 227.063 661.958 227.445C662.042 227.82 662.16 228.15 662.312 228.435V228.612H658.792C658.625 228.265 658.5 227.841 658.417 227.341C658.34 226.834 658.302 226.313 658.302 225.779ZM658.729 221.726L658.75 223.601H657.198C656.872 223.601 656.594 223.647 656.365 223.737C656.142 223.827 655.962 223.952 655.823 224.112C655.691 224.265 655.594 224.438 655.531 224.633C655.476 224.827 655.448 225.032 655.448 225.247C655.448 225.456 655.497 225.643 655.594 225.81C655.698 225.97 655.837 226.095 656.01 226.185C656.184 226.275 656.378 226.32 656.594 226.32C656.983 226.32 657.312 226.247 657.583 226.101C657.861 225.949 658.073 225.765 658.219 225.549C658.365 225.334 658.437 225.133 658.437 224.945L659.208 226.383C659.069 226.66 658.91 226.942 658.729 227.226C658.556 227.511 658.337 227.775 658.073 228.018C657.816 228.254 657.5 228.449 657.125 228.601C656.75 228.747 656.295 228.82 655.76 228.82C655.066 228.82 654.427 228.678 653.844 228.393C653.267 228.108 652.806 227.713 652.458 227.206C652.111 226.692 651.937 226.101 651.937 225.435C651.937 224.851 652.042 224.331 652.25 223.872C652.465 223.414 652.788 223.025 653.219 222.706C653.649 222.386 654.198 222.143 654.865 221.976C655.531 221.81 656.316 221.726 657.219 221.726H658.729ZM667.323 220.133V228.612H663.812V217.341H667.094L667.323 220.133ZM670.656 217.258L670.594 220.518C670.455 220.504 670.267 220.487 670.031 220.466C669.795 220.445 669.597 220.435 669.437 220.435C669.028 220.435 668.674 220.483 668.375 220.581C668.083 220.671 667.84 220.81 667.646 220.997C667.458 221.178 667.319 221.407 667.229 221.685C667.146 221.963 667.108 222.285 667.115 222.654L666.479 222.237C666.479 221.48 666.552 220.792 666.698 220.174C666.851 219.549 667.066 219.011 667.344 218.56C667.622 218.101 667.958 217.751 668.354 217.508C668.75 217.258 669.194 217.133 669.687 217.133C669.861 217.133 670.031 217.143 670.198 217.164C670.372 217.185 670.524 217.216 670.656 217.258ZM677.406 225.779V221.133C677.406 220.813 677.361 220.539 677.271 220.31C677.181 220.081 677.038 219.904 676.844 219.779C676.649 219.647 676.389 219.581 676.063 219.581C675.799 219.581 675.573 219.626 675.385 219.716C675.198 219.806 675.056 219.942 674.958 220.122C674.861 220.303 674.813 220.532 674.813 220.81H671.302C671.302 220.289 671.417 219.806 671.646 219.362C671.882 218.91 672.215 218.518 672.646 218.185C673.083 217.851 673.604 217.595 674.208 217.414C674.819 217.226 675.5 217.133 676.25 217.133C677.146 217.133 677.944 217.282 678.646 217.581C679.354 217.879 679.913 218.327 680.323 218.924C680.733 219.515 680.938 220.258 680.938 221.154V225.768C680.938 226.504 680.979 227.063 681.063 227.445C681.146 227.82 681.264 228.15 681.417 228.435V228.612H677.896C677.729 228.265 677.604 227.841 677.521 227.341C677.444 226.834 677.406 226.313 677.406 225.779ZM677.833 221.726L677.854 223.601H676.302C675.976 223.601 675.698 223.647 675.469 223.737C675.247 223.827 675.066 223.952 674.927 224.112C674.795 224.265 674.698 224.438 674.635 224.633C674.58 224.827 674.552 225.032 674.552 225.247C674.552 225.456 674.601 225.643 674.698 225.81C674.802 225.97 674.941 226.095 675.115 226.185C675.288 226.275 675.483 226.32 675.698 226.32C676.087 226.32 676.417 226.247 676.688 226.101C676.965 225.949 677.177 225.765 677.323 225.549C677.469 225.334 677.542 225.133 677.542 224.945L678.313 226.383C678.174 226.66 678.014 226.942 677.833 227.226C677.66 227.511 677.441 227.775 677.177 228.018C676.92 228.254 676.604 228.449 676.229 228.601C675.854 228.747 675.399 228.82 674.865 228.82C674.17 228.82 673.531 228.678 672.948 228.393C672.372 228.108 671.91 227.713 671.563 227.206C671.215 226.692 671.042 226.101 671.042 225.435C671.042 224.851 671.146 224.331 671.354 223.872C671.569 223.414 671.892 223.025 672.323 222.706C672.753 222.386 673.302 222.143 673.969 221.976C674.635 221.81 675.42 221.726 676.323 221.726H677.833ZM686.781 226.206L689 217.341H692.698L689.01 228.612H686.823L686.781 226.206ZM685.469 217.341L687.656 226.206L687.635 228.612H685.437L681.76 217.341H685.469ZM699.052 228.82C698.135 228.82 697.316 228.678 696.594 228.393C695.872 228.101 695.26 227.702 694.76 227.195C694.267 226.688 693.889 226.105 693.625 225.445C693.368 224.785 693.24 224.088 693.24 223.351V222.956C693.24 222.129 693.354 221.365 693.583 220.664C693.812 219.956 694.153 219.338 694.604 218.81C695.056 218.282 695.622 217.872 696.302 217.581C696.983 217.282 697.774 217.133 698.677 217.133C699.476 217.133 700.191 217.261 700.823 217.518C701.455 217.775 701.99 218.143 702.427 218.622C702.872 219.101 703.208 219.681 703.437 220.362C703.674 221.042 703.792 221.806 703.792 222.654V224.081H694.583V221.883H700.365V221.612C700.372 221.237 700.306 220.917 700.167 220.654C700.035 220.39 699.84 220.188 699.583 220.049C699.326 219.91 699.014 219.841 698.646 219.841C698.264 219.841 697.948 219.924 697.698 220.091C697.455 220.258 697.264 220.487 697.125 220.779C696.993 221.063 696.899 221.393 696.844 221.768C696.788 222.143 696.76 222.539 696.76 222.956V223.351C696.76 223.768 696.816 224.147 696.927 224.487C697.045 224.827 697.212 225.119 697.427 225.362C697.649 225.598 697.913 225.782 698.219 225.914C698.531 226.046 698.885 226.112 699.281 226.112C699.76 226.112 700.233 226.022 700.698 225.841C701.163 225.66 701.562 225.362 701.896 224.945L703.49 226.841C703.26 227.167 702.934 227.483 702.51 227.789C702.094 228.095 701.594 228.345 701.01 228.539C700.427 228.726 699.774 228.82 699.052 228.82ZM708.927 212.612V228.612H705.406V212.612H708.927Z" fill="white"/>
<path d="M869.031 212.956H875C876.167 212.956 877.181 213.13 878.042 213.477C878.903 213.824 879.566 214.338 880.031 215.019C880.503 215.699 880.74 216.54 880.74 217.54C880.74 218.408 880.604 219.133 880.333 219.717C880.063 220.3 879.684 220.783 879.198 221.165C878.719 221.54 878.16 221.849 877.521 222.092L876.323 222.769H871.313L871.292 219.946H875C875.465 219.946 875.851 219.863 876.156 219.696C876.462 219.529 876.691 219.293 876.844 218.988C877.003 218.675 877.083 218.303 877.083 217.873C877.083 217.435 877.003 217.06 876.844 216.748C876.684 216.435 876.448 216.196 876.135 216.029C875.83 215.863 875.451 215.779 875 215.779H872.688V228.123H869.031V212.956ZM877.333 228.123L873.979 221.415L877.854 221.394L881.25 227.967V228.123H877.333ZM888.24 228.331C887.323 228.331 886.503 228.189 885.781 227.904C885.059 227.613 884.448 227.213 883.948 226.706C883.455 226.199 883.076 225.616 882.812 224.956C882.556 224.297 882.427 223.599 882.427 222.863V222.467C882.427 221.64 882.542 220.876 882.771 220.175C883 219.467 883.34 218.849 883.792 218.321C884.243 217.793 884.809 217.383 885.49 217.092C886.17 216.793 886.962 216.644 887.865 216.644C888.663 216.644 889.378 216.772 890.01 217.029C890.642 217.286 891.177 217.654 891.615 218.133C892.059 218.613 892.396 219.192 892.625 219.873C892.861 220.553 892.979 221.317 892.979 222.165V223.592H883.771V221.394H889.552V221.123C889.559 220.748 889.493 220.428 889.354 220.165C889.222 219.901 889.028 219.699 888.771 219.56C888.514 219.422 888.201 219.352 887.833 219.352C887.451 219.352 887.135 219.435 886.885 219.602C886.642 219.769 886.451 219.998 886.312 220.29C886.181 220.574 886.087 220.904 886.031 221.279C885.976 221.654 885.948 222.05 885.948 222.467V222.863C885.948 223.279 886.003 223.658 886.115 223.998C886.233 224.338 886.399 224.63 886.615 224.873C886.837 225.109 887.101 225.293 887.406 225.425C887.719 225.557 888.073 225.623 888.469 225.623C888.948 225.623 889.42 225.533 889.885 225.352C890.351 225.172 890.75 224.873 891.083 224.456L892.677 226.352C892.448 226.678 892.122 226.994 891.698 227.3C891.281 227.606 890.781 227.856 890.198 228.05C889.615 228.238 888.962 228.331 888.24 228.331ZM900.26 225.29V220.644C900.26 220.324 900.215 220.05 900.125 219.821C900.035 219.592 899.892 219.415 899.698 219.29C899.503 219.158 899.243 219.092 898.917 219.092C898.653 219.092 898.427 219.137 898.24 219.227C898.052 219.317 897.91 219.453 897.813 219.633C897.715 219.814 897.667 220.043 897.667 220.321H894.156C894.156 219.8 894.271 219.317 894.5 218.873C894.736 218.422 895.069 218.029 895.5 217.696C895.938 217.363 896.458 217.106 897.063 216.925C897.674 216.738 898.354 216.644 899.104 216.644C900 216.644 900.799 216.793 901.5 217.092C902.208 217.39 902.767 217.838 903.177 218.435C903.587 219.026 903.792 219.769 903.792 220.665V225.279C903.792 226.015 903.833 226.574 903.917 226.956C904 227.331 904.118 227.661 904.271 227.946V228.123H900.75C900.583 227.776 900.458 227.352 900.375 226.852C900.299 226.345 900.26 225.824 900.26 225.29ZM900.688 221.238L900.708 223.113H899.156C898.83 223.113 898.552 223.158 898.323 223.248C898.101 223.338 897.92 223.463 897.781 223.623C897.649 223.776 897.552 223.949 897.49 224.144C897.434 224.338 897.406 224.543 897.406 224.758C897.406 224.967 897.455 225.154 897.552 225.321C897.656 225.481 897.795 225.606 897.969 225.696C898.142 225.786 898.337 225.831 898.552 225.831C898.941 225.831 899.271 225.758 899.542 225.613C899.819 225.46 900.031 225.276 900.177 225.06C900.323 224.845 900.396 224.644 900.396 224.456L901.167 225.894C901.028 226.172 900.868 226.453 900.688 226.738C900.514 227.022 900.295 227.286 900.031 227.529C899.774 227.765 899.458 227.96 899.083 228.113C898.708 228.258 898.253 228.331 897.719 228.331C897.024 228.331 896.385 228.189 895.802 227.904C895.226 227.619 894.764 227.224 894.417 226.717C894.069 226.203 893.896 225.613 893.896 224.946C893.896 224.363 894 223.842 894.208 223.383C894.424 222.925 894.747 222.536 895.177 222.217C895.608 221.897 896.156 221.654 896.823 221.488C897.49 221.321 898.274 221.238 899.177 221.238H900.688ZM910.5 225.623C910.826 225.623 911.104 225.564 911.333 225.446C911.569 225.321 911.747 225.147 911.865 224.925C911.99 224.696 912.049 224.422 912.042 224.102H915.344C915.351 224.949 915.142 225.692 914.719 226.331C914.302 226.963 913.733 227.456 913.01 227.81C912.295 228.158 911.486 228.331 910.583 228.331C909.701 228.331 908.931 228.189 908.271 227.904C907.611 227.613 907.059 227.21 906.615 226.696C906.177 226.175 905.847 225.567 905.625 224.873C905.41 224.178 905.302 223.425 905.302 222.613V222.373C905.302 221.56 905.41 220.807 905.625 220.113C905.847 219.411 906.177 218.803 906.615 218.29C907.059 217.769 907.608 217.366 908.26 217.081C908.92 216.79 909.688 216.644 910.563 216.644C911.5 216.644 912.326 216.821 913.042 217.175C913.764 217.529 914.33 218.043 914.74 218.717C915.149 219.39 915.351 220.206 915.344 221.165H912.042C912.049 220.824 911.997 220.519 911.885 220.248C911.774 219.977 911.601 219.762 911.365 219.602C911.135 219.435 910.84 219.352 910.479 219.352C910.118 219.352 909.826 219.432 909.604 219.592C909.382 219.751 909.212 219.974 909.094 220.258C908.983 220.536 908.906 220.856 908.865 221.217C908.83 221.578 908.813 221.963 908.813 222.373V222.613C908.813 223.029 908.83 223.422 908.865 223.79C908.906 224.151 908.986 224.47 909.104 224.748C909.222 225.019 909.392 225.234 909.615 225.394C909.837 225.547 910.132 225.623 910.5 225.623ZM922.781 216.852V219.29H915.99V216.852H922.781ZM917.417 214.05H920.927V224.446C920.927 224.744 920.962 224.977 921.031 225.144C921.101 225.303 921.219 225.418 921.385 225.488C921.559 225.55 921.788 225.581 922.073 225.581C922.274 225.581 922.441 225.578 922.573 225.571C922.705 225.557 922.83 225.54 922.948 225.519V228.029C922.649 228.126 922.337 228.199 922.01 228.248C921.684 228.303 921.337 228.331 920.969 228.331C920.219 228.331 919.576 228.213 919.042 227.977C918.514 227.741 918.111 227.369 917.833 226.863C917.556 226.356 917.417 225.696 917.417 224.883V214.05ZM930.375 223.363V212.956H934.021V223.363C934.021 224.376 933.788 225.255 933.323 225.998C932.865 226.741 932.24 227.317 931.448 227.727C930.663 228.13 929.781 228.331 928.802 228.331C927.788 228.331 926.885 228.161 926.094 227.821C925.309 227.481 924.691 226.956 924.24 226.248C923.795 225.54 923.573 224.637 923.573 223.54H927.24C927.24 224.053 927.299 224.456 927.417 224.748C927.535 225.033 927.708 225.234 927.938 225.352C928.174 225.463 928.462 225.519 928.802 225.519C929.135 225.519 929.417 225.435 929.646 225.269C929.882 225.095 930.063 224.849 930.188 224.529C930.313 224.203 930.375 223.814 930.375 223.363ZM942.083 224.956C942.083 224.762 942.017 224.595 941.885 224.456C941.76 224.31 941.538 224.178 941.219 224.06C940.899 223.935 940.451 223.81 939.875 223.685C939.326 223.567 938.809 223.411 938.323 223.217C937.844 223.022 937.424 222.786 937.063 222.508C936.701 222.231 936.417 221.901 936.208 221.519C936.007 221.137 935.906 220.699 935.906 220.206C935.906 219.727 936.007 219.276 936.208 218.852C936.417 218.422 936.719 218.043 937.115 217.717C937.517 217.383 938.007 217.123 938.583 216.935C939.16 216.741 939.816 216.644 940.552 216.644C941.566 216.644 942.441 216.8 943.177 217.113C943.913 217.418 944.479 217.849 944.875 218.404C945.278 218.953 945.479 219.588 945.479 220.31H941.969C941.969 220.026 941.92 219.783 941.823 219.581C941.733 219.38 941.583 219.227 941.375 219.123C941.167 219.012 940.889 218.956 940.542 218.956C940.299 218.956 940.076 219.001 939.875 219.092C939.681 219.182 939.524 219.307 939.406 219.467C939.288 219.626 939.229 219.814 939.229 220.029C939.229 220.182 939.264 220.321 939.333 220.446C939.41 220.564 939.524 220.675 939.677 220.779C939.83 220.876 940.024 220.967 940.26 221.05C940.497 221.126 940.781 221.196 941.115 221.258C941.872 221.397 942.58 221.595 943.24 221.852C943.899 222.109 944.434 222.474 944.844 222.946C945.26 223.418 945.469 224.053 945.469 224.852C945.469 225.352 945.354 225.814 945.125 226.238C944.896 226.654 944.566 227.022 944.135 227.342C943.705 227.654 943.188 227.897 942.583 228.071C941.979 228.244 941.299 228.331 940.542 228.331C939.465 228.331 938.556 228.14 937.813 227.758C937.069 227.369 936.507 226.883 936.125 226.3C935.75 225.71 935.563 225.113 935.563 224.508H938.833C938.847 224.856 938.931 225.14 939.083 225.363C939.243 225.585 939.455 225.748 939.719 225.852C939.983 225.956 940.288 226.008 940.635 226.008C940.955 226.008 941.219 225.963 941.427 225.873C941.642 225.783 941.806 225.661 941.917 225.508C942.028 225.349 942.083 225.165 942.083 224.956Z" fill="white"/>
<path d="M1107.26 212.889H1110.24L1113.62 223.441L1117.01 212.889H1119.99L1114.83 228.056H1112.42L1107.26 212.889ZM1105.45 212.889H1108.53L1109.1 224.514V228.056H1105.45V212.889ZM1118.72 212.889H1121.81V228.056H1118.15V224.514L1118.72 212.889ZM1127.45 226.733L1130.36 216.785H1134.14L1129.6 229.733C1129.51 230.018 1129.38 230.323 1129.22 230.65C1129.06 230.983 1128.84 231.299 1128.56 231.598C1128.28 231.896 1127.93 232.139 1127.49 232.327C1127.06 232.514 1126.52 232.608 1125.89 232.608C1125.55 232.608 1125.3 232.591 1125.14 232.556C1124.98 232.528 1124.75 232.476 1124.43 232.4V229.889C1124.52 229.889 1124.59 229.889 1124.66 229.889C1124.73 229.889 1124.8 229.889 1124.89 229.889C1125.26 229.889 1125.56 229.851 1125.78 229.775C1126.01 229.698 1126.18 229.587 1126.3 229.441C1126.43 229.295 1126.52 229.118 1126.59 228.91L1127.45 226.733ZM1126.71 216.785L1128.93 224.67L1129.31 228.389H1126.96L1122.95 216.785H1126.71ZM1143.03 224.025C1143.03 223.788 1143 223.577 1142.93 223.389C1142.86 223.195 1142.73 223.014 1142.54 222.848C1142.35 222.681 1142.08 222.514 1141.73 222.348C1141.38 222.174 1140.92 221.993 1140.35 221.806C1139.69 221.584 1139.05 221.334 1138.43 221.056C1137.81 220.771 1137.26 220.441 1136.77 220.066C1136.28 219.684 1135.9 219.24 1135.61 218.733C1135.33 218.219 1135.19 217.622 1135.19 216.941C1135.19 216.288 1135.33 215.702 1135.63 215.181C1135.92 214.653 1136.32 214.205 1136.84 213.837C1137.37 213.462 1137.99 213.177 1138.7 212.983C1139.41 212.782 1140.18 212.681 1141.02 212.681C1142.13 212.681 1143.11 212.875 1143.96 213.264C1144.81 213.646 1145.48 214.191 1145.96 214.9C1146.44 215.601 1146.69 216.431 1146.69 217.389H1143.05C1143.05 217.007 1142.97 216.67 1142.81 216.379C1142.66 216.087 1142.43 215.858 1142.11 215.691C1141.8 215.525 1141.41 215.441 1140.94 215.441C1140.48 215.441 1140.09 215.511 1139.78 215.65C1139.47 215.788 1139.23 215.976 1139.07 216.212C1138.91 216.441 1138.83 216.695 1138.83 216.973C1138.83 217.202 1138.9 217.41 1139.02 217.598C1139.15 217.778 1139.34 217.948 1139.57 218.108C1139.82 218.268 1140.11 218.42 1140.45 218.566C1140.8 218.712 1141.18 218.854 1141.61 218.993C1142.42 219.25 1143.14 219.538 1143.76 219.858C1144.39 220.17 1144.92 220.528 1145.35 220.931C1145.79 221.327 1146.12 221.778 1146.34 222.285C1146.57 222.792 1146.69 223.365 1146.69 224.004C1146.69 224.684 1146.56 225.288 1146.29 225.816C1146.03 226.344 1145.65 226.792 1145.16 227.16C1144.66 227.521 1144.07 227.795 1143.39 227.983C1142.7 228.17 1141.93 228.264 1141.08 228.264C1140.31 228.264 1139.54 228.167 1138.78 227.973C1138.03 227.771 1137.35 227.466 1136.74 227.056C1136.13 226.639 1135.64 226.108 1135.27 225.462C1134.91 224.809 1134.73 224.035 1134.73 223.139H1138.4C1138.4 223.584 1138.45 223.959 1138.57 224.264C1138.69 224.57 1138.86 224.816 1139.09 225.004C1139.32 225.184 1139.6 225.316 1139.94 225.4C1140.27 225.476 1140.65 225.514 1141.08 225.514C1141.55 225.514 1141.92 225.448 1142.21 225.316C1142.49 225.177 1142.7 224.997 1142.83 224.775C1142.97 224.545 1143.03 224.295 1143.03 224.025ZM1157.03 225.556L1161.26 228.91L1158.99 230.827L1154.83 227.473L1157.03 225.556ZM1161.44 220.17V220.785C1161.44 221.945 1161.27 222.986 1160.95 223.91C1160.63 224.827 1160.17 225.611 1159.57 226.264C1158.98 226.91 1158.28 227.407 1157.48 227.754C1156.67 228.094 1155.78 228.264 1154.81 228.264C1153.83 228.264 1152.94 228.094 1152.12 227.754C1151.32 227.407 1150.62 226.91 1150.02 226.264C1149.43 225.611 1148.97 224.827 1148.65 223.91C1148.33 222.986 1148.17 221.945 1148.17 220.785V220.17C1148.17 219.011 1148.33 217.969 1148.65 217.045C1148.97 216.122 1149.43 215.337 1150.01 214.691C1150.6 214.038 1151.3 213.542 1152.1 213.202C1152.92 212.854 1153.81 212.681 1154.79 212.681C1155.76 212.681 1156.65 212.854 1157.46 213.202C1158.27 213.542 1158.97 214.038 1159.56 214.691C1160.16 215.337 1160.62 216.122 1160.95 217.045C1161.27 217.969 1161.44 219.011 1161.44 220.17ZM1157.72 220.785V220.15C1157.72 219.4 1157.65 218.74 1157.52 218.17C1157.4 217.594 1157.21 217.111 1156.96 216.723C1156.71 216.334 1156.4 216.042 1156.03 215.848C1155.67 215.646 1155.26 215.545 1154.79 215.545C1154.31 215.545 1153.88 215.646 1153.52 215.848C1153.16 216.042 1152.86 216.334 1152.61 216.723C1152.37 217.111 1152.19 217.594 1152.06 218.17C1151.94 218.74 1151.89 219.4 1151.89 220.15V220.785C1151.89 221.528 1151.94 222.188 1152.06 222.764C1152.19 223.334 1152.37 223.816 1152.61 224.212C1152.86 224.608 1153.17 224.907 1153.53 225.108C1153.9 225.309 1154.33 225.41 1154.81 225.41C1155.28 225.41 1155.69 225.309 1156.05 225.108C1156.41 224.907 1156.72 224.608 1156.96 224.212C1157.21 223.816 1157.4 223.334 1157.52 222.764C1157.65 222.188 1157.72 221.528 1157.72 220.785ZM1173.32 225.243V228.056H1165.66V225.243H1173.32ZM1166.96 212.889V228.056H1163.3V212.889H1166.96Z" fill="white"/>
</svg>
