<svg width="1363" height="167" viewBox="0 0 1363 167" fill="none" xmlns="http://www.w3.org/2000/svg">
<rect width="1363" height="167" rx="15" fill="#F0F0F0"/>
<path d="M0 15C0 6.71573 6.71573 0 15 0H37V167H15C6.71573 167 0 160.284 0 152V15Z" fill="#424241"/>
<path d="M100.906 54.9219L93.3945 52.2383V49.0859L103.602 53.375V55.6367L100.906 54.9219ZM93.3945 57.1719L100.918 54.4297L103.602 53.7852V56.0352L93.3945 60.3242V57.1719ZM122.867 59.2578V62H114.277V59.2578H122.867ZM115.414 44.9375V62H111.898V44.9375H115.414ZM130.508 62.2344C129.523 62.2344 128.641 62.0781 127.859 61.7656C127.078 61.4453 126.414 61.0039 125.867 60.4414C125.328 59.8789 124.914 59.2266 124.625 58.4844C124.336 57.7344 124.191 56.9375 124.191 56.0938V55.625C124.191 54.6641 124.328 53.7852 124.602 52.9883C124.875 52.1914 125.266 51.5 125.773 50.9141C126.289 50.3281 126.914 49.8789 127.648 49.5664C128.383 49.2461 129.211 49.0859 130.133 49.0859C131.031 49.0859 131.828 49.2344 132.523 49.5312C133.219 49.8281 133.801 50.25 134.27 50.7969C134.746 51.3438 135.105 52 135.348 52.7656C135.59 53.5234 135.711 54.3672 135.711 55.2969V56.7031H125.633V54.4531H132.395V54.1953C132.395 53.7266 132.309 53.3086 132.137 52.9414C131.973 52.5664 131.723 52.2695 131.387 52.0508C131.051 51.832 130.621 51.7227 130.098 51.7227C129.652 51.7227 129.27 51.8203 128.949 52.0156C128.629 52.2109 128.367 52.4844 128.164 52.8359C127.969 53.1875 127.82 53.6016 127.719 54.0781C127.625 54.5469 127.578 55.0625 127.578 55.625V56.0938C127.578 56.6016 127.648 57.0703 127.789 57.5C127.938 57.9297 128.145 58.3008 128.41 58.6133C128.684 58.9258 129.012 59.168 129.395 59.3398C129.785 59.5117 130.227 59.5977 130.719 59.5977C131.328 59.5977 131.895 59.4805 132.418 59.2461C132.949 59.0039 133.406 58.6406 133.789 58.1562L135.43 59.9375C135.164 60.3203 134.801 60.6875 134.34 61.0391C133.887 61.3906 133.34 61.6797 132.699 61.9062C132.059 62.125 131.328 62.2344 130.508 62.2344ZM143.844 49.3203V51.7109H136.461V49.3203H143.844ZM138.289 46.1914H141.664V58.1797C141.664 58.5469 141.711 58.8281 141.805 59.0234C141.906 59.2188 142.055 59.3555 142.25 59.4336C142.445 59.5039 142.691 59.5391 142.988 59.5391C143.199 59.5391 143.387 59.5312 143.551 59.5156C143.723 59.4922 143.867 59.4688 143.984 59.4453L143.996 61.9297C143.707 62.0234 143.395 62.0977 143.059 62.1523C142.723 62.207 142.352 62.2344 141.945 62.2344C141.203 62.2344 140.555 62.1133 140 61.8711C139.453 61.6211 139.031 61.2227 138.734 60.6758C138.438 60.1289 138.289 59.4102 138.289 58.5195V46.1914ZM155.117 51.9453V62H151.73V49.3203H154.906L155.117 51.9453ZM154.648 55.2148H153.711C153.711 54.332 153.816 53.5195 154.027 52.7773C154.246 52.0273 154.562 51.3789 154.977 50.832C155.398 50.2773 155.918 49.8477 156.535 49.543C157.152 49.2383 157.867 49.0859 158.68 49.0859C159.242 49.0859 159.758 49.1719 160.227 49.3438C160.695 49.5078 161.098 49.7695 161.434 50.1289C161.777 50.4805 162.043 50.9414 162.23 51.5117C162.418 52.0742 162.512 52.75 162.512 53.5391V62H159.137V53.9141C159.137 53.3359 159.059 52.8906 158.902 52.5781C158.746 52.2656 158.523 52.0469 158.234 51.9219C157.953 51.7969 157.613 51.7344 157.215 51.7344C156.777 51.7344 156.395 51.8242 156.066 52.0039C155.746 52.1836 155.48 52.4336 155.27 52.7539C155.059 53.0664 154.902 53.4336 154.801 53.8555C154.699 54.2773 154.648 54.7305 154.648 55.2148ZM162.195 54.8281L160.988 54.9805C160.988 54.1523 161.09 53.3828 161.293 52.6719C161.504 51.9609 161.812 51.3359 162.219 50.7969C162.633 50.2578 163.145 49.8398 163.754 49.543C164.363 49.2383 165.066 49.0859 165.863 49.0859C166.473 49.0859 167.027 49.1758 167.527 49.3555C168.027 49.5273 168.453 49.8047 168.805 50.1875C169.164 50.5625 169.438 51.0547 169.625 51.6641C169.82 52.2734 169.918 53.0195 169.918 53.9023V62H166.531V53.9023C166.531 53.3164 166.453 52.8711 166.297 52.5664C166.148 52.2539 165.93 52.0391 165.641 51.9219C165.359 51.7969 165.023 51.7344 164.633 51.7344C164.227 51.7344 163.871 51.8164 163.566 51.9805C163.262 52.1367 163.008 52.3555 162.805 52.6367C162.602 52.918 162.449 53.2461 162.348 53.6211C162.246 53.9883 162.195 54.3906 162.195 54.8281ZM178.367 62.2344C177.383 62.2344 176.5 62.0781 175.719 61.7656C174.938 61.4453 174.273 61.0039 173.727 60.4414C173.188 59.8789 172.773 59.2266 172.484 58.4844C172.195 57.7344 172.051 56.9375 172.051 56.0938V55.625C172.051 54.6641 172.188 53.7852 172.461 52.9883C172.734 52.1914 173.125 51.5 173.633 50.9141C174.148 50.3281 174.773 49.8789 175.508 49.5664C176.242 49.2461 177.07 49.0859 177.992 49.0859C178.891 49.0859 179.688 49.2344 180.383 49.5312C181.078 49.8281 181.66 50.25 182.129 50.7969C182.605 51.3438 182.965 52 183.207 52.7656C183.449 53.5234 183.57 54.3672 183.57 55.2969V56.7031H173.492V54.4531H180.254V54.1953C180.254 53.7266 180.168 53.3086 179.996 52.9414C179.832 52.5664 179.582 52.2695 179.246 52.0508C178.91 51.832 178.48 51.7227 177.957 51.7227C177.512 51.7227 177.129 51.8203 176.809 52.0156C176.488 52.2109 176.227 52.4844 176.023 52.8359C175.828 53.1875 175.68 53.6016 175.578 54.0781C175.484 54.5469 175.438 55.0625 175.438 55.625V56.0938C175.438 56.6016 175.508 57.0703 175.648 57.5C175.797 57.9297 176.004 58.3008 176.27 58.6133C176.543 58.9258 176.871 59.168 177.254 59.3398C177.645 59.5117 178.086 59.5977 178.578 59.5977C179.188 59.5977 179.754 59.4805 180.277 59.2461C180.809 59.0039 181.266 58.6406 181.648 58.1562L183.289 59.9375C183.023 60.3203 182.66 60.6875 182.199 61.0391C181.746 61.3906 181.199 61.6797 180.559 61.9062C179.918 62.125 179.188 62.2344 178.367 62.2344ZM195.031 49.3203V62H191.645V49.3203H195.031ZM191.434 46.0156C191.434 45.5234 191.605 45.1172 191.949 44.7969C192.293 44.4766 192.754 44.3164 193.332 44.3164C193.902 44.3164 194.359 44.4766 194.703 44.7969C195.055 45.1172 195.23 45.5234 195.23 46.0156C195.23 46.5078 195.055 46.9141 194.703 47.2344C194.359 47.5547 193.902 47.7148 193.332 47.7148C192.754 47.7148 192.293 47.5547 191.949 47.2344C191.605 46.9141 191.434 46.5078 191.434 46.0156ZM201.125 52.0273V62H197.75V49.3203H200.914L201.125 52.0273ZM200.633 55.2148H199.719C199.719 54.2773 199.84 53.4336 200.082 52.6836C200.324 51.9258 200.664 51.2812 201.102 50.75C201.539 50.2109 202.059 49.8008 202.66 49.5195C203.27 49.2305 203.949 49.0859 204.699 49.0859C205.293 49.0859 205.836 49.1719 206.328 49.3438C206.82 49.5156 207.242 49.7891 207.594 50.1641C207.953 50.5391 208.227 51.0352 208.414 51.6523C208.609 52.2695 208.707 53.0234 208.707 53.9141V62H205.309V53.9023C205.309 53.3398 205.23 52.9023 205.074 52.5898C204.918 52.2773 204.688 52.0586 204.383 51.9336C204.086 51.8008 203.719 51.7344 203.281 51.7344C202.828 51.7344 202.434 51.8242 202.098 52.0039C201.77 52.1836 201.496 52.4336 201.277 52.7539C201.066 53.0664 200.906 53.4336 200.797 53.8555C200.688 54.2773 200.633 54.7305 200.633 55.2148Z" fill="#888888"/>
<path d="M109.93 86.0078V118H102.217V86.0078H109.93ZM119.554 86.0078V91.9624H92.813V86.0078H119.554ZM132.012 118.439C130.079 118.439 128.35 118.139 126.827 117.539C125.303 116.923 124.014 116.081 122.959 115.012C121.919 113.942 121.121 112.712 120.564 111.32C120.022 109.929 119.751 108.457 119.751 106.904V106.069C119.751 104.326 119.993 102.714 120.477 101.235C120.96 99.7407 121.678 98.437 122.63 97.3237C123.582 96.2104 124.776 95.3462 126.211 94.731C127.647 94.1011 129.317 93.7861 131.221 93.7861C132.906 93.7861 134.415 94.0571 135.748 94.5991C137.081 95.1411 138.208 95.9175 139.131 96.9282C140.069 97.939 140.779 99.1621 141.263 100.598C141.761 102.033 142.01 103.645 142.01 105.432V108.442H122.586V103.806H134.781V103.234C134.795 102.443 134.656 101.77 134.363 101.213C134.085 100.656 133.675 100.231 133.133 99.9385C132.591 99.6455 131.932 99.499 131.155 99.499C130.35 99.499 129.683 99.6748 129.156 100.026C128.643 100.378 128.24 100.861 127.947 101.477C127.669 102.077 127.471 102.773 127.354 103.564C127.237 104.355 127.178 105.19 127.178 106.069V106.904C127.178 107.783 127.295 108.581 127.53 109.299C127.779 110.017 128.13 110.632 128.584 111.145C129.053 111.643 129.61 112.031 130.254 112.309C130.914 112.587 131.661 112.727 132.496 112.727C133.506 112.727 134.502 112.536 135.484 112.155C136.465 111.774 137.308 111.145 138.011 110.266L141.373 114.265C140.889 114.953 140.201 115.62 139.307 116.264C138.428 116.909 137.374 117.436 136.143 117.846C134.913 118.242 133.536 118.439 132.012 118.439ZM155.062 112.727C155.75 112.727 156.336 112.602 156.819 112.353C157.317 112.089 157.691 111.723 157.94 111.254C158.204 110.771 158.328 110.192 158.313 109.519H165.279C165.293 111.306 164.854 112.873 163.96 114.221C163.082 115.554 161.88 116.594 160.357 117.341C158.848 118.073 157.142 118.439 155.237 118.439C153.377 118.439 151.751 118.139 150.359 117.539C148.968 116.923 147.803 116.074 146.866 114.99C145.943 113.891 145.247 112.609 144.778 111.145C144.324 109.68 144.097 108.09 144.097 106.376V105.871C144.097 104.157 144.324 102.568 144.778 101.103C145.247 99.6235 145.943 98.3418 146.866 97.2578C147.803 96.1592 148.96 95.3096 150.337 94.709C151.729 94.0938 153.348 93.7861 155.193 93.7861C157.171 93.7861 158.914 94.1597 160.423 94.9067C161.946 95.6538 163.14 96.7378 164.004 98.1587C164.869 99.5796 165.293 101.301 165.279 103.322H158.313C158.328 102.604 158.218 101.96 157.984 101.389C157.75 100.817 157.383 100.363 156.885 100.026C156.402 99.6748 155.779 99.499 155.018 99.499C154.256 99.499 153.641 99.6675 153.172 100.004C152.703 100.341 152.344 100.81 152.095 101.411C151.861 101.997 151.7 102.67 151.612 103.432C151.539 104.194 151.502 105.007 151.502 105.871V106.376C151.502 107.255 151.539 108.083 151.612 108.859C151.7 109.621 151.868 110.295 152.117 110.881C152.366 111.452 152.725 111.906 153.194 112.243C153.663 112.565 154.285 112.727 155.062 112.727ZM175.694 84.25V118H168.289V84.25H175.694ZM174.815 105.3L173.079 105.344C173.079 103.674 173.284 102.136 173.694 100.729C174.104 99.3232 174.69 98.1001 175.452 97.0601C176.214 96.02 177.129 95.2144 178.199 94.6431C179.268 94.0718 180.455 93.7861 181.758 93.7861C182.93 93.7861 184 93.9546 184.966 94.2915C185.948 94.6284 186.79 95.1704 187.493 95.9175C188.211 96.6646 188.76 97.6387 189.141 98.8398C189.537 100.041 189.734 101.506 189.734 103.234V118H182.286V103.19C182.286 102.224 182.146 101.477 181.868 100.949C181.604 100.407 181.224 100.034 180.726 99.8286C180.228 99.6089 179.62 99.499 178.902 99.499C178.038 99.499 177.334 99.6455 176.792 99.9385C176.25 100.231 175.833 100.642 175.54 101.169C175.262 101.682 175.071 102.29 174.969 102.993C174.866 103.696 174.815 104.465 174.815 105.3ZM221.88 109.497C221.88 108.999 221.807 108.552 221.661 108.156C221.514 107.746 221.243 107.365 220.848 107.014C220.452 106.662 219.881 106.311 219.134 105.959C218.401 105.593 217.435 105.212 216.233 104.816C214.827 104.348 213.472 103.82 212.168 103.234C210.865 102.634 209.7 101.938 208.675 101.147C207.649 100.341 206.836 99.4038 206.236 98.3345C205.635 97.2505 205.335 95.9907 205.335 94.5552C205.335 93.1782 205.643 91.9404 206.258 90.8418C206.873 89.7285 207.73 88.7837 208.829 88.0073C209.942 87.2163 211.246 86.6157 212.74 86.2056C214.234 85.7808 215.867 85.5684 217.64 85.5684C219.983 85.5684 222.049 85.9785 223.836 86.7988C225.638 87.6045 227.044 88.7544 228.055 90.2485C229.08 91.728 229.593 93.4785 229.593 95.5H221.924C221.924 94.6943 221.756 93.9839 221.419 93.3687C221.097 92.7534 220.606 92.27 219.947 91.9185C219.288 91.5669 218.46 91.3911 217.464 91.3911C216.497 91.3911 215.684 91.5376 215.025 91.8306C214.366 92.1235 213.868 92.519 213.531 93.0171C213.194 93.5005 213.025 94.0352 213.025 94.6211C213.025 95.1045 213.157 95.5439 213.421 95.9395C213.699 96.3203 214.087 96.6792 214.585 97.0161C215.098 97.353 215.713 97.6753 216.431 97.9829C217.164 98.2905 217.984 98.5908 218.892 98.8838C220.591 99.4258 222.1 100.034 223.418 100.708C224.751 101.367 225.872 102.121 226.78 102.971C227.703 103.806 228.399 104.758 228.868 105.827C229.351 106.896 229.593 108.105 229.593 109.453C229.593 110.888 229.314 112.163 228.758 113.276C228.201 114.389 227.403 115.334 226.363 116.11C225.323 116.872 224.078 117.451 222.627 117.846C221.177 118.242 219.559 118.439 217.771 118.439C216.131 118.439 214.512 118.234 212.916 117.824C211.333 117.399 209.898 116.755 208.609 115.891C207.32 115.012 206.287 113.891 205.511 112.529C204.749 111.152 204.368 109.519 204.368 107.629H212.103C212.103 108.566 212.227 109.357 212.476 110.002C212.725 110.646 213.091 111.167 213.575 111.562C214.058 111.943 214.651 112.221 215.354 112.397C216.058 112.558 216.863 112.639 217.771 112.639C218.753 112.639 219.544 112.5 220.145 112.221C220.745 111.928 221.185 111.547 221.463 111.079C221.741 110.595 221.88 110.068 221.88 109.497ZM245.743 94.2256V99.3672H231.417V94.2256H245.743ZM234.427 88.3149H241.832V110.244C241.832 110.874 241.905 111.364 242.051 111.716C242.198 112.053 242.447 112.294 242.798 112.441C243.165 112.573 243.648 112.639 244.249 112.639C244.673 112.639 245.025 112.631 245.303 112.617C245.582 112.587 245.845 112.551 246.094 112.507V117.802C245.464 118.007 244.805 118.161 244.117 118.264C243.428 118.381 242.696 118.439 241.919 118.439C240.337 118.439 238.982 118.19 237.854 117.692C236.741 117.194 235.892 116.411 235.306 115.341C234.72 114.272 234.427 112.88 234.427 111.167V88.3149ZM261.036 112.023V102.224C261.036 101.55 260.94 100.971 260.75 100.488C260.56 100.004 260.259 99.6309 259.849 99.3672C259.439 99.0889 258.89 98.9497 258.201 98.9497C257.645 98.9497 257.168 99.0449 256.773 99.2354C256.377 99.4258 256.077 99.7114 255.872 100.092C255.667 100.473 255.564 100.957 255.564 101.542H248.16C248.16 100.444 248.401 99.4258 248.885 98.4883C249.383 97.5361 250.086 96.7085 250.994 96.0054C251.917 95.3022 253.016 94.7603 254.29 94.3794C255.579 93.9839 257.015 93.7861 258.597 93.7861C260.486 93.7861 262.171 94.1011 263.65 94.731C265.145 95.3608 266.324 96.3057 267.188 97.5654C268.052 98.8105 268.484 100.378 268.484 102.268V112.001C268.484 113.554 268.572 114.733 268.748 115.539C268.924 116.33 269.173 117.026 269.495 117.626V118H262.068C261.717 117.268 261.453 116.374 261.277 115.319C261.116 114.25 261.036 113.151 261.036 112.023ZM261.937 103.476L261.98 107.431H258.707C258.018 107.431 257.432 107.526 256.949 107.717C256.48 107.907 256.099 108.171 255.806 108.508C255.528 108.83 255.323 109.196 255.191 109.606C255.074 110.017 255.015 110.449 255.015 110.903C255.015 111.342 255.118 111.738 255.323 112.089C255.542 112.426 255.835 112.69 256.202 112.88C256.568 113.071 256.978 113.166 257.432 113.166C258.252 113.166 258.948 113.012 259.52 112.705C260.105 112.382 260.552 111.994 260.86 111.54C261.167 111.086 261.321 110.661 261.321 110.266L262.947 113.298C262.654 113.884 262.317 114.477 261.937 115.078C261.57 115.678 261.109 116.235 260.552 116.748C260.01 117.246 259.344 117.656 258.553 117.978C257.762 118.286 256.802 118.439 255.674 118.439C254.209 118.439 252.862 118.139 251.631 117.539C250.416 116.938 249.441 116.103 248.709 115.034C247.977 113.95 247.61 112.705 247.61 111.298C247.61 110.068 247.83 108.969 248.27 108.002C248.724 107.036 249.405 106.215 250.313 105.542C251.221 104.868 252.378 104.355 253.785 104.003C255.191 103.652 256.846 103.476 258.75 103.476H261.937ZM282.635 112.727C283.323 112.727 283.909 112.602 284.393 112.353C284.891 112.089 285.264 111.723 285.513 111.254C285.777 110.771 285.901 110.192 285.887 109.519H292.852C292.867 111.306 292.427 112.873 291.534 114.221C290.655 115.554 289.454 116.594 287.93 117.341C286.421 118.073 284.715 118.439 282.811 118.439C280.95 118.439 279.324 118.139 277.933 117.539C276.541 116.923 275.376 116.074 274.439 114.99C273.516 113.891 272.82 112.609 272.352 111.145C271.897 109.68 271.67 108.09 271.67 106.376V105.871C271.67 104.157 271.897 102.568 272.352 101.103C272.82 99.6235 273.516 98.3418 274.439 97.2578C275.376 96.1592 276.534 95.3096 277.911 94.709C279.302 94.0938 280.921 93.7861 282.767 93.7861C284.744 93.7861 286.487 94.1597 287.996 94.9067C289.52 95.6538 290.713 96.7378 291.578 98.1587C292.442 99.5796 292.867 101.301 292.852 103.322H285.887C285.901 102.604 285.792 101.96 285.557 101.389C285.323 100.817 284.957 100.363 284.458 100.026C283.975 99.6748 283.353 99.499 282.591 99.499C281.829 99.499 281.214 99.6675 280.745 100.004C280.276 100.341 279.917 100.81 279.668 101.411C279.434 101.997 279.273 102.67 279.185 103.432C279.112 104.194 279.075 105.007 279.075 105.871V106.376C279.075 107.255 279.112 108.083 279.185 108.859C279.273 109.621 279.441 110.295 279.69 110.881C279.939 111.452 280.298 111.906 280.767 112.243C281.236 112.565 281.858 112.727 282.635 112.727ZM303.487 84.228V118H296.082V84.228H303.487ZM318.692 94.2256L308.365 106.333L302.959 111.738L299.729 107.036L304.234 101.169L309.815 94.2256H318.692ZM310.76 118L304.41 107.167L309.881 103.278L319.241 118H310.76Z" fill="#424241"/>
<path d="M1363 15C1363 6.71573 1356.28 0 1348 0H1134V167H1348C1356.28 167 1363 160.284 1363 152V15Z" fill="#0F1319"/>
<path fill-rule="evenodd" clip-rule="evenodd" d="M1218.5 55C1218.37 55 1218.24 55.0527 1218.15 55.1464C1218.05 55.2402 1218 55.3674 1218 55.5V111.5C1218 111.633 1218.05 111.76 1218.15 111.854C1218.24 111.947 1218.37 112 1218.5 112H1278C1278.13 112 1278.26 111.947 1278.35 111.854C1278.45 111.76 1278.5 111.633 1278.5 111.5V66C1278.5 65.8674 1278.45 65.7402 1278.35 65.6464C1278.26 65.5527 1278.13 65.5 1278 65.5H1248.25C1247.36 65.5 1246.52 65.1045 1245.95 64.4206L1238.09 55H1218.5ZM1213.9 50.9038C1215.12 49.6848 1216.78 49 1218.5 49H1239.5C1240.39 49 1241.23 49.3955 1241.8 50.0794L1249.66 59.5H1278C1279.72 59.5 1281.38 60.1848 1282.6 61.4038C1283.82 62.6228 1284.5 64.2761 1284.5 66V111.5C1284.5 113.224 1283.82 114.877 1282.6 116.096C1281.38 117.315 1279.72 118 1278 118H1218.5C1216.78 118 1215.12 117.315 1213.9 116.096C1212.68 114.877 1212 113.224 1212 111.5V55.5C1212 53.7761 1212.68 52.1228 1213.9 50.9038Z" fill="white"/>
<path fill-rule="evenodd" clip-rule="evenodd" d="M1243.72 77.5251C1245.09 78.892 1245.09 81.108 1243.72 82.4749L1237.45 88.75L1243.72 95.0251C1245.09 96.392 1245.09 98.608 1243.72 99.9749C1242.36 101.342 1240.14 101.342 1238.78 99.9749L1230.03 91.2249C1228.66 89.858 1228.66 87.642 1230.03 86.2751L1238.78 77.5251C1240.14 76.1583 1242.36 76.1583 1243.72 77.5251Z" fill="white"/>
<path fill-rule="evenodd" clip-rule="evenodd" d="M1252.03 99.9749C1250.66 98.608 1250.66 96.392 1252.03 95.0251L1258.3 88.75L1252.03 82.4749C1250.66 81.108 1250.66 78.892 1252.03 77.5251C1253.39 76.1583 1255.61 76.1583 1256.97 77.5251L1265.72 86.2751C1267.09 87.642 1267.09 89.858 1265.72 91.2249L1256.97 99.9749C1255.61 101.342 1253.39 101.342 1252.03 99.9749Z" fill="white"/>
</svg>
