<svg width="1363" height="167" viewBox="0 0 1363 167" fill="none" xmlns="http://www.w3.org/2000/svg">
<rect width="1363" height="167" rx="15" fill="#F0F0F0"/>
<path d="M0 15C0 6.71573 6.71573 0 15 0H37V167H15C6.71573 167 0 160.284 0 152V15Z" fill="#424241"/>
<path d="M100.906 54.9219L93.3945 52.2383V49.0859L103.602 53.375V55.6367L100.906 54.9219ZM93.3945 57.1719L100.918 54.4297L103.602 53.7852V56.0352L93.3945 60.3242V57.1719ZM122.867 59.2578V62H114.277V59.2578H122.867ZM115.414 44.9375V62H111.898V44.9375H115.414ZM130.508 62.2344C129.523 62.2344 128.641 62.0781 127.859 61.7656C127.078 61.4453 126.414 61.0039 125.867 60.4414C125.328 59.8789 124.914 59.2266 124.625 58.4844C124.336 57.7344 124.191 56.9375 124.191 56.0938V55.625C124.191 54.6641 124.328 53.7852 124.602 52.9883C124.875 52.1914 125.266 51.5 125.773 50.9141C126.289 50.3281 126.914 49.8789 127.648 49.5664C128.383 49.2461 129.211 49.0859 130.133 49.0859C131.031 49.0859 131.828 49.2344 132.523 49.5312C133.219 49.8281 133.801 50.25 134.27 50.7969C134.746 51.3438 135.105 52 135.348 52.7656C135.59 53.5234 135.711 54.3672 135.711 55.2969V56.7031H125.633V54.4531H132.395V54.1953C132.395 53.7266 132.309 53.3086 132.137 52.9414C131.973 52.5664 131.723 52.2695 131.387 52.0508C131.051 51.832 130.621 51.7227 130.098 51.7227C129.652 51.7227 129.27 51.8203 128.949 52.0156C128.629 52.2109 128.367 52.4844 128.164 52.8359C127.969 53.1875 127.82 53.6016 127.719 54.0781C127.625 54.5469 127.578 55.0625 127.578 55.625V56.0938C127.578 56.6016 127.648 57.0703 127.789 57.5C127.938 57.9297 128.145 58.3008 128.41 58.6133C128.684 58.9258 129.012 59.168 129.395 59.3398C129.785 59.5117 130.227 59.5977 130.719 59.5977C131.328 59.5977 131.895 59.4805 132.418 59.2461C132.949 59.0039 133.406 58.6406 133.789 58.1562L135.43 59.9375C135.164 60.3203 134.801 60.6875 134.34 61.0391C133.887 61.3906 133.34 61.6797 132.699 61.9062C132.059 62.125 131.328 62.2344 130.508 62.2344ZM143.844 49.3203V51.7109H136.461V49.3203H143.844ZM138.289 46.1914H141.664V58.1797C141.664 58.5469 141.711 58.8281 141.805 59.0234C141.906 59.2188 142.055 59.3555 142.25 59.4336C142.445 59.5039 142.691 59.5391 142.988 59.5391C143.199 59.5391 143.387 59.5312 143.551 59.5156C143.723 59.4922 143.867 59.4688 143.984 59.4453L143.996 61.9297C143.707 62.0234 143.395 62.0977 143.059 62.1523C142.723 62.207 142.352 62.2344 141.945 62.2344C141.203 62.2344 140.555 62.1133 140 61.8711C139.453 61.6211 139.031 61.2227 138.734 60.6758C138.438 60.1289 138.289 59.4102 138.289 58.5195V46.1914ZM155.117 51.9453V62H151.73V49.3203H154.906L155.117 51.9453ZM154.648 55.2148H153.711C153.711 54.332 153.816 53.5195 154.027 52.7773C154.246 52.0273 154.562 51.3789 154.977 50.832C155.398 50.2773 155.918 49.8477 156.535 49.543C157.152 49.2383 157.867 49.0859 158.68 49.0859C159.242 49.0859 159.758 49.1719 160.227 49.3438C160.695 49.5078 161.098 49.7695 161.434 50.1289C161.777 50.4805 162.043 50.9414 162.23 51.5117C162.418 52.0742 162.512 52.75 162.512 53.5391V62H159.137V53.9141C159.137 53.3359 159.059 52.8906 158.902 52.5781C158.746 52.2656 158.523 52.0469 158.234 51.9219C157.953 51.7969 157.613 51.7344 157.215 51.7344C156.777 51.7344 156.395 51.8242 156.066 52.0039C155.746 52.1836 155.48 52.4336 155.27 52.7539C155.059 53.0664 154.902 53.4336 154.801 53.8555C154.699 54.2773 154.648 54.7305 154.648 55.2148ZM162.195 54.8281L160.988 54.9805C160.988 54.1523 161.09 53.3828 161.293 52.6719C161.504 51.9609 161.812 51.3359 162.219 50.7969C162.633 50.2578 163.145 49.8398 163.754 49.543C164.363 49.2383 165.066 49.0859 165.863 49.0859C166.473 49.0859 167.027 49.1758 167.527 49.3555C168.027 49.5273 168.453 49.8047 168.805 50.1875C169.164 50.5625 169.438 51.0547 169.625 51.6641C169.82 52.2734 169.918 53.0195 169.918 53.9023V62H166.531V53.9023C166.531 53.3164 166.453 52.8711 166.297 52.5664C166.148 52.2539 165.93 52.0391 165.641 51.9219C165.359 51.7969 165.023 51.7344 164.633 51.7344C164.227 51.7344 163.871 51.8164 163.566 51.9805C163.262 52.1367 163.008 52.3555 162.805 52.6367C162.602 52.918 162.449 53.2461 162.348 53.6211C162.246 53.9883 162.195 54.3906 162.195 54.8281ZM178.367 62.2344C177.383 62.2344 176.5 62.0781 175.719 61.7656C174.938 61.4453 174.273 61.0039 173.727 60.4414C173.188 59.8789 172.773 59.2266 172.484 58.4844C172.195 57.7344 172.051 56.9375 172.051 56.0938V55.625C172.051 54.6641 172.188 53.7852 172.461 52.9883C172.734 52.1914 173.125 51.5 173.633 50.9141C174.148 50.3281 174.773 49.8789 175.508 49.5664C176.242 49.2461 177.07 49.0859 177.992 49.0859C178.891 49.0859 179.688 49.2344 180.383 49.5312C181.078 49.8281 181.66 50.25 182.129 50.7969C182.605 51.3438 182.965 52 183.207 52.7656C183.449 53.5234 183.57 54.3672 183.57 55.2969V56.7031H173.492V54.4531H180.254V54.1953C180.254 53.7266 180.168 53.3086 179.996 52.9414C179.832 52.5664 179.582 52.2695 179.246 52.0508C178.91 51.832 178.48 51.7227 177.957 51.7227C177.512 51.7227 177.129 51.8203 176.809 52.0156C176.488 52.2109 176.227 52.4844 176.023 52.8359C175.828 53.1875 175.68 53.6016 175.578 54.0781C175.484 54.5469 175.438 55.0625 175.438 55.625V56.0938C175.438 56.6016 175.508 57.0703 175.648 57.5C175.797 57.9297 176.004 58.3008 176.27 58.6133C176.543 58.9258 176.871 59.168 177.254 59.3398C177.645 59.5117 178.086 59.5977 178.578 59.5977C179.188 59.5977 179.754 59.4805 180.277 59.2461C180.809 59.0039 181.266 58.6406 181.648 58.1562L183.289 59.9375C183.023 60.3203 182.66 60.6875 182.199 61.0391C181.746 61.3906 181.199 61.6797 180.559 61.9062C179.918 62.125 179.188 62.2344 178.367 62.2344ZM195.031 49.3203V62H191.645V49.3203H195.031ZM191.434 46.0156C191.434 45.5234 191.605 45.1172 191.949 44.7969C192.293 44.4766 192.754 44.3164 193.332 44.3164C193.902 44.3164 194.359 44.4766 194.703 44.7969C195.055 45.1172 195.23 45.5234 195.23 46.0156C195.23 46.5078 195.055 46.9141 194.703 47.2344C194.359 47.5547 193.902 47.7148 193.332 47.7148C192.754 47.7148 192.293 47.5547 191.949 47.2344C191.605 46.9141 191.434 46.5078 191.434 46.0156ZM201.125 52.0273V62H197.75V49.3203H200.914L201.125 52.0273ZM200.633 55.2148H199.719C199.719 54.2773 199.84 53.4336 200.082 52.6836C200.324 51.9258 200.664 51.2812 201.102 50.75C201.539 50.2109 202.059 49.8008 202.66 49.5195C203.27 49.2305 203.949 49.0859 204.699 49.0859C205.293 49.0859 205.836 49.1719 206.328 49.3438C206.82 49.5156 207.242 49.7891 207.594 50.1641C207.953 50.5391 208.227 51.0352 208.414 51.6523C208.609 52.2695 208.707 53.0234 208.707 53.9141V62H205.309V53.9023C205.309 53.3398 205.23 52.9023 205.074 52.5898C204.918 52.2773 204.688 52.0586 204.383 51.9336C204.086 51.8008 203.719 51.7344 203.281 51.7344C202.828 51.7344 202.434 51.8242 202.098 52.0039C201.77 52.1836 201.496 52.4336 201.277 52.7539C201.066 53.0664 200.906 53.4336 200.797 53.8555C200.688 54.2773 200.633 54.7305 200.633 55.2148Z" fill="#888888"/>
<path d="M107.205 107.146H99.251V101.191H107.205C108.289 101.191 109.168 101.008 109.842 100.642C110.516 100.275 111.006 99.77 111.314 99.1255C111.636 98.4663 111.797 97.7266 111.797 96.9062C111.797 96.0273 111.636 95.2144 111.314 94.4673C111.006 93.7202 110.516 93.1196 109.842 92.6655C109.168 92.1968 108.289 91.9624 107.205 91.9624H102.151V118H94.439V86.0078H107.205C109.769 86.0078 111.973 86.4766 113.819 87.4141C115.679 88.3516 117.107 89.6406 118.104 91.2812C119.1 92.9072 119.598 94.7676 119.598 96.8623C119.598 98.9277 119.1 100.729 118.104 102.268C117.107 103.806 115.679 105.007 113.819 105.871C111.973 106.721 109.769 107.146 107.205 107.146ZM130.87 100.114V118H123.465V94.2256H130.386L130.87 100.114ZM137.901 94.0498L137.769 100.927C137.476 100.898 137.081 100.861 136.583 100.817C136.084 100.773 135.667 100.751 135.33 100.751C134.466 100.751 133.719 100.854 133.089 101.059C132.474 101.25 131.961 101.542 131.551 101.938C131.155 102.319 130.862 102.802 130.672 103.388C130.496 103.974 130.416 104.655 130.43 105.432L129.09 104.553C129.09 102.956 129.244 101.506 129.551 100.202C129.874 98.8838 130.328 97.7485 130.914 96.7964C131.5 95.8296 132.21 95.0898 133.045 94.5771C133.88 94.0498 134.817 93.7861 135.857 93.7861C136.224 93.7861 136.583 93.8081 136.934 93.8521C137.3 93.896 137.623 93.9619 137.901 94.0498ZM138.736 106.354V105.893C138.736 104.15 138.985 102.546 139.483 101.081C139.981 99.6016 140.713 98.3198 141.68 97.2358C142.647 96.1519 143.841 95.3096 145.262 94.709C146.683 94.0938 148.323 93.7861 150.184 93.7861C152.059 93.7861 153.707 94.0938 155.127 94.709C156.563 95.3096 157.764 96.1519 158.731 97.2358C159.698 98.3198 160.43 99.6016 160.928 101.081C161.426 102.546 161.675 104.15 161.675 105.893V106.354C161.675 108.083 161.426 109.687 160.928 111.167C160.43 112.631 159.698 113.913 158.731 115.012C157.764 116.096 156.57 116.938 155.149 117.539C153.729 118.139 152.088 118.439 150.228 118.439C148.367 118.439 146.719 118.139 145.284 117.539C143.848 116.938 142.647 116.096 141.68 115.012C140.713 113.913 139.981 112.631 139.483 111.167C138.985 109.687 138.736 108.083 138.736 106.354ZM146.141 105.893V106.354C146.141 107.248 146.207 108.083 146.338 108.859C146.47 109.636 146.69 110.317 146.998 110.903C147.305 111.474 147.723 111.921 148.25 112.243C148.777 112.565 149.437 112.727 150.228 112.727C151.004 112.727 151.648 112.565 152.161 112.243C152.688 111.921 153.106 111.474 153.414 110.903C153.721 110.317 153.941 109.636 154.073 108.859C154.205 108.083 154.271 107.248 154.271 106.354V105.893C154.271 105.029 154.205 104.216 154.073 103.454C153.941 102.678 153.721 101.997 153.414 101.411C153.106 100.81 152.688 100.341 152.161 100.004C151.634 99.6675 150.975 99.499 150.184 99.499C149.407 99.499 148.755 99.6675 148.228 100.004C147.715 100.341 147.305 100.81 146.998 101.411C146.69 101.997 146.47 102.678 146.338 103.454C146.207 104.216 146.141 105.029 146.141 105.893ZM177.496 94.2256V99.3672H163.169V94.2256H177.496ZM166.18 88.3149H173.584V110.244C173.584 110.874 173.658 111.364 173.804 111.716C173.951 112.053 174.2 112.294 174.551 112.441C174.917 112.573 175.401 112.639 176.001 112.639C176.426 112.639 176.778 112.631 177.056 112.617C177.334 112.587 177.598 112.551 177.847 112.507V117.802C177.217 118.007 176.558 118.161 175.87 118.264C175.181 118.381 174.449 118.439 173.672 118.439C172.09 118.439 170.735 118.19 169.607 117.692C168.494 117.194 167.645 116.411 167.059 115.341C166.473 114.272 166.18 112.88 166.18 111.167V88.3149ZM178.858 106.354V105.893C178.858 104.15 179.107 102.546 179.605 101.081C180.103 99.6016 180.835 98.3198 181.802 97.2358C182.769 96.1519 183.963 95.3096 185.384 94.709C186.805 94.0938 188.445 93.7861 190.306 93.7861C192.181 93.7861 193.829 94.0938 195.25 94.709C196.685 95.3096 197.886 96.1519 198.853 97.2358C199.82 98.3198 200.552 99.6016 201.05 101.081C201.548 102.546 201.797 104.15 201.797 105.893V106.354C201.797 108.083 201.548 109.687 201.05 111.167C200.552 112.631 199.82 113.913 198.853 115.012C197.886 116.096 196.692 116.938 195.271 117.539C193.851 118.139 192.21 118.439 190.35 118.439C188.489 118.439 186.841 118.139 185.406 117.539C183.97 116.938 182.769 116.096 181.802 115.012C180.835 113.913 180.103 112.631 179.605 111.167C179.107 109.687 178.858 108.083 178.858 106.354ZM186.263 105.893V106.354C186.263 107.248 186.329 108.083 186.46 108.859C186.592 109.636 186.812 110.317 187.12 110.903C187.427 111.474 187.845 111.921 188.372 112.243C188.899 112.565 189.559 112.727 190.35 112.727C191.126 112.727 191.771 112.565 192.283 112.243C192.811 111.921 193.228 111.474 193.536 110.903C193.843 110.317 194.063 109.636 194.195 108.859C194.327 108.083 194.393 107.248 194.393 106.354V105.893C194.393 105.029 194.327 104.216 194.195 103.454C194.063 102.678 193.843 101.997 193.536 101.411C193.228 100.81 192.811 100.341 192.283 100.004C191.756 99.6675 191.097 99.499 190.306 99.499C189.529 99.499 188.877 99.6675 188.35 100.004C187.837 100.341 187.427 100.81 187.12 101.411C186.812 101.997 186.592 102.678 186.46 103.454C186.329 104.216 186.263 105.029 186.263 105.893ZM217.618 94.2256V99.3672H203.292V94.2256H217.618ZM206.302 88.3149H213.707V110.244C213.707 110.874 213.78 111.364 213.926 111.716C214.073 112.053 214.322 112.294 214.673 112.441C215.04 112.573 215.523 112.639 216.124 112.639C216.548 112.639 216.9 112.631 217.178 112.617C217.457 112.587 217.72 112.551 217.969 112.507V117.802C217.339 118.007 216.68 118.161 215.992 118.264C215.303 118.381 214.571 118.439 213.794 118.439C212.212 118.439 210.857 118.19 209.729 117.692C208.616 117.194 207.767 116.411 207.181 115.341C206.595 114.272 206.302 112.88 206.302 111.167V88.3149ZM227.857 115.209L234.009 94.2256H241.963L232.405 121.538C232.2 122.138 231.929 122.783 231.592 123.471C231.255 124.174 230.794 124.841 230.208 125.471C229.622 126.101 228.868 126.613 227.945 127.009C227.037 127.404 225.909 127.602 224.561 127.602C223.843 127.602 223.316 127.565 222.979 127.492C222.657 127.434 222.159 127.324 221.485 127.163V121.867C221.675 121.867 221.836 121.867 221.968 121.867C222.115 121.867 222.276 121.867 222.452 121.867C223.243 121.867 223.873 121.787 224.341 121.625C224.825 121.464 225.191 121.23 225.44 120.922C225.704 120.615 225.909 120.241 226.055 119.802L227.857 115.209ZM226.297 94.2256L230.977 110.859L231.79 118.703H226.824L218.365 94.2256H226.297ZM251.368 98.7959V127.141H243.963V94.2256H250.862L251.368 98.7959ZM265.958 105.827V106.289C265.958 108.017 265.76 109.621 265.364 111.101C264.969 112.58 264.383 113.869 263.606 114.968C262.83 116.066 261.863 116.923 260.706 117.539C259.563 118.139 258.238 118.439 256.729 118.439C255.308 118.439 254.085 118.125 253.06 117.495C252.034 116.865 251.177 115.993 250.489 114.88C249.8 113.767 249.244 112.492 248.819 111.057C248.394 109.621 248.057 108.105 247.808 106.508V105.915C248.057 104.201 248.394 102.612 248.819 101.147C249.244 99.6675 249.8 98.3784 250.489 97.2798C251.177 96.1812 252.027 95.3242 253.038 94.709C254.063 94.0938 255.286 93.7861 256.707 93.7861C258.216 93.7861 259.542 94.0718 260.684 94.6431C261.841 95.2144 262.808 96.0347 263.584 97.104C264.375 98.1587 264.969 99.4258 265.364 100.905C265.76 102.385 265.958 104.025 265.958 105.827ZM258.553 106.289V105.827C258.553 104.904 258.487 104.062 258.355 103.3C258.223 102.524 258.011 101.85 257.718 101.279C257.439 100.708 257.066 100.268 256.597 99.9604C256.128 99.6528 255.55 99.499 254.861 99.499C254.07 99.499 253.404 99.6235 252.862 99.8726C252.334 100.107 251.91 100.473 251.587 100.971C251.28 101.455 251.06 102.062 250.928 102.795C250.811 103.513 250.76 104.355 250.774 105.322V107.124C250.745 108.237 250.855 109.218 251.104 110.068C251.353 110.903 251.785 111.555 252.4 112.023C253.016 112.492 253.851 112.727 254.905 112.727C255.608 112.727 256.194 112.565 256.663 112.243C257.132 111.906 257.505 111.445 257.784 110.859C258.062 110.258 258.26 109.57 258.377 108.793C258.494 108.017 258.553 107.182 258.553 106.289ZM277.076 94.2256V118H269.649V94.2256H277.076ZM269.209 88.0952C269.209 87.0405 269.59 86.1763 270.352 85.5024C271.114 84.8286 272.103 84.4917 273.318 84.4917C274.534 84.4917 275.523 84.8286 276.285 85.5024C277.046 86.1763 277.427 87.0405 277.427 88.0952C277.427 89.1499 277.046 90.0142 276.285 90.688C275.523 91.3618 274.534 91.6987 273.318 91.6987C272.103 91.6987 271.114 91.3618 270.352 90.688C269.59 90.0142 269.209 89.1499 269.209 88.0952ZM288.919 99.3013V118H281.514V94.2256H288.458L288.919 99.3013ZM288.04 105.3L286.304 105.344C286.304 103.527 286.524 101.909 286.963 100.488C287.403 99.0522 288.025 97.8364 288.831 96.8403C289.637 95.8442 290.596 95.0898 291.709 94.5771C292.837 94.0498 294.09 93.7861 295.467 93.7861C296.565 93.7861 297.569 93.9473 298.477 94.2695C299.4 94.5918 300.191 95.1118 300.85 95.8296C301.524 96.5474 302.037 97.4995 302.388 98.686C302.754 99.8579 302.938 101.308 302.938 103.037V118H295.489V103.015C295.489 102.062 295.357 101.337 295.093 100.839C294.83 100.327 294.449 99.9751 293.951 99.7847C293.453 99.5942 292.845 99.499 292.127 99.499C291.365 99.499 290.721 99.6455 290.193 99.9385C289.666 100.231 289.241 100.642 288.919 101.169C288.611 101.682 288.384 102.29 288.238 102.993C288.106 103.696 288.04 104.465 288.04 105.3ZM321.988 94.2256H328.711V117.077C328.711 119.274 328.206 121.135 327.195 122.658C326.185 124.196 324.771 125.361 322.955 126.152C321.153 126.958 319.043 127.36 316.626 127.36C315.557 127.36 314.466 127.221 313.353 126.943C312.239 126.679 311.199 126.284 310.232 125.756C309.266 125.229 308.453 124.577 307.793 123.801L310.892 119.45C311.492 120.124 312.247 120.695 313.155 121.164C314.063 121.647 315.132 121.889 316.363 121.889C317.432 121.889 318.326 121.699 319.043 121.318C319.776 120.937 320.333 120.38 320.713 119.648C321.094 118.93 321.285 118.059 321.285 117.033V99.8506L321.988 94.2256ZM306.189 106.398V105.937C306.189 104.135 306.409 102.495 306.849 101.015C307.303 99.521 307.947 98.2393 308.782 97.1699C309.632 96.0859 310.657 95.251 311.858 94.665C313.06 94.0791 314.415 93.7861 315.923 93.7861C317.549 93.7861 318.882 94.1011 319.922 94.731C320.977 95.3462 321.819 96.2104 322.449 97.3237C323.094 98.437 323.592 99.7407 323.943 101.235C324.31 102.714 324.617 104.311 324.866 106.025V106.574C324.617 108.186 324.273 109.709 323.833 111.145C323.409 112.565 322.852 113.825 322.164 114.924C321.475 116.022 320.611 116.887 319.571 117.517C318.545 118.132 317.315 118.439 315.879 118.439C314.385 118.439 313.038 118.139 311.836 117.539C310.65 116.938 309.632 116.096 308.782 115.012C307.947 113.928 307.303 112.653 306.849 111.188C306.409 109.724 306.189 108.127 306.189 106.398ZM313.594 105.937V106.398C313.594 107.292 313.675 108.12 313.836 108.881C314.012 109.643 314.275 110.317 314.627 110.903C314.979 111.474 315.411 111.921 315.923 112.243C316.451 112.565 317.066 112.727 317.769 112.727C318.838 112.727 319.703 112.5 320.362 112.045C321.021 111.591 321.497 110.947 321.79 110.112C322.083 109.277 322.208 108.295 322.164 107.167V105.432C322.193 104.465 322.127 103.615 321.966 102.883C321.805 102.136 321.548 101.513 321.197 101.015C320.86 100.517 320.406 100.144 319.834 99.8945C319.278 99.6309 318.604 99.499 317.813 99.499C317.125 99.499 316.517 99.6602 315.989 99.9824C315.462 100.305 315.022 100.759 314.671 101.345C314.319 101.916 314.048 102.597 313.858 103.388C313.682 104.165 313.594 105.014 313.594 105.937Z" fill="#424241"/>
<path d="M1363 15C1363 6.71573 1356.28 0 1348 0H1134V167H1348C1356.28 167 1363 160.284 1363 152V15Z" fill="#0F1319"/>
<path fill-rule="evenodd" clip-rule="evenodd" d="M1203 49C1203 47.8954 1203.9 47 1205 47H1292.5C1293.6 47 1294.5 47.8954 1294.5 49V118.996C1294.5 120.101 1293.6 120.996 1292.5 120.996H1205C1203.9 120.996 1203 120.101 1203 118.996V49ZM1207 51V55.4945H1290.5V51H1207ZM1290.5 59.4945H1235.44V116.996H1290.5V59.4945ZM1231.44 116.996V59.4945H1207V116.996H1231.44Z" fill="white"/>
<path fill-rule="evenodd" clip-rule="evenodd" d="M1209.97 64.8004C1209.97 63.6958 1210.87 62.8004 1211.97 62.8004H1225.97C1227.08 62.8004 1227.97 63.6958 1227.97 64.8004V84.1956C1227.97 85.3001 1227.08 86.1956 1225.97 86.1956H1211.97C1210.87 86.1956 1209.97 85.3001 1209.97 84.1956V64.8004ZM1213.97 66.8004V82.1956H1223.97V66.8004H1213.97ZM1239.58 65.6964C1239.58 64.5918 1240.47 63.6964 1241.58 63.6964H1284.5C1285.61 63.6964 1286.5 64.5918 1286.5 65.6964V111.905C1286.5 113.01 1285.61 113.905 1284.5 113.905H1241.58C1240.47 113.905 1239.58 113.01 1239.58 111.905V65.6964ZM1243.58 67.6964V109.905H1282.5V67.6964H1243.58ZM1209.81 95.9363C1209.81 94.8317 1210.71 93.9363 1211.81 93.9363H1220.73C1221.84 93.9363 1222.73 94.8317 1222.73 95.9363C1222.73 97.0409 1221.84 97.9363 1220.73 97.9363H1211.81C1210.71 97.9363 1209.81 97.0409 1209.81 95.9363ZM1209.81 102.936C1209.81 101.832 1210.71 100.936 1211.81 100.936H1226.35C1227.46 100.936 1228.35 101.832 1228.35 102.936C1228.35 104.041 1227.46 104.936 1226.35 104.936H1211.81C1210.71 104.936 1209.81 104.041 1209.81 102.936ZM1209.81 109.936C1209.81 108.832 1210.71 107.936 1211.81 107.936H1220.73C1221.84 107.936 1222.73 108.832 1222.73 109.936C1222.73 111.041 1221.84 111.936 1220.73 111.936H1211.81C1210.71 111.936 1209.81 111.041 1209.81 109.936Z" fill="white"/>
</svg>
